<svg width="731" height="732" viewBox="0 0 731 732" fill="none" xmlns="http://www.w3.org/2000/svg">
<g clip-path="url(#clip0)">
<path d="M-1724 213.1L-366.7 996.8L-1724 1780.5L-3081.3 996.8L-1724 213.1ZM-3070 990.3L-1712.7 1774L-3070 990.3ZM-3058.8 983.9L-1701.5 1767.6L-3058.8 983.9ZM-3047.6 977.4L-1690.3 1761.1L-3047.6 977.4ZM-3036.4 970.9L-1679.1 1754.6L-3036.4 970.9ZM-3025.2 964.4L-1667.9 1748.1L-3025.2 964.4ZM-3013.9 958L-1656.7 1741.7L-3013.9 958ZM-3002.7 951.5L-1645.4 1735.2L-3002.7 951.5ZM-2991.5 945L-1634.2 1728.7L-2991.5 945ZM-2980.3 938.5L-1623 1722.2L-2980.3 938.5ZM-2969.1 932.1L-1611.8 1715.8L-2969.1 932.1ZM-2957.9 925.6L-1600.6 1709.3L-2957.9 925.6ZM-2946.6 919.1L-1589.4 1702.8L-2946.6 919.1ZM-2935.4 912.6L-1578.1 1696.3L-2935.4 912.6ZM-2924.2 906.1L-1566.9 1689.8L-2924.2 906.1ZM-2913 899.7L-1555.7 1683.4L-2913 899.7ZM-2901.8 893.2L-1544.5 1676.9L-2901.8 893.2ZM-2890.6 886.7L-1533.3 1670.4L-2890.6 886.7ZM-2879.3 880.2L-1522.1 1663.9L-2879.3 880.2ZM-2868.1 873.8L-1510.8 1657.5L-2868.1 873.8ZM-2856.9 867.3L-1499.6 1651L-2856.9 867.3ZM-2845.7 860.8L-1488.4 1644.5L-2845.7 860.8ZM-2834.5 854.3L-1477.2 1638L-2834.5 854.3ZM-2823.3 847.9L-1466 1631.6L-2823.3 847.9ZM-2812 841.4L-1454.7 1625.1L-2812 841.4ZM-2800.8 834.9L-1443.5 1618.6L-2800.8 834.9ZM-2789.6 828.4L-1432.3 1612.1L-2789.6 828.4ZM-2778.4 821.9L-1421.1 1605.6L-2778.4 821.9ZM-2767.2 815.5L-1409.9 1599.2L-2767.2 815.5ZM-2756 809L-1398.7 1592.7L-2756 809ZM-2744.7 802.5L-1387.4 1586.2L-2744.7 802.5ZM-2733.5 796L-1376.2 1579.7L-2733.5 796ZM-2722.3 789.6L-1365 1573.3L-2722.3 789.6ZM-2711.1 783.1L-1353.8 1566.8L-2711.1 783.1ZM-2699.9 776.6L-1342.6 1560.3L-2699.9 776.6ZM-2688.6 770.1L-1331.4 1553.8L-2688.6 770.1ZM-2677.4 763.7L-1320.1 1547.4L-2677.4 763.7ZM-2666.2 757.2L-1308.9 1540.9L-2666.2 757.2ZM-2655 750.7L-1297.7 1534.4L-2655 750.7ZM-2643.8 744.2L-1286.5 1527.9L-2643.8 744.2ZM-2632.6 737.8L-1275.3 1521.5L-2632.6 737.8ZM-2621.3 731.3L-1264.1 1515L-2621.3 731.3ZM-2610.1 724.8L-1252.8 1508.5L-2610.1 724.8ZM-2598.9 718.3L-1241.6 1502L-2598.9 718.3ZM-2587.7 711.8L-1230.4 1495.5L-2587.7 711.8ZM-2576.5 705.4L-1219.2 1489.1L-2576.5 705.4ZM-2565.3 698.9L-1208 1482.6L-2565.3 698.9ZM-2554 692.4L-1196.7 1476.1L-2554 692.4ZM-2542.8 685.9L-1185.5 1469.6L-2542.8 685.9ZM-2531.6 679.5L-1174.3 1463.2L-2531.6 679.5ZM-2520.4 673L-1163.1 1456.7L-2520.4 673ZM-2509.2 666.5L-1151.9 1450.2L-2509.2 666.5ZM-2498 660L-1140.7 1443.7L-2498 660ZM-2486.7 653.6L-1129.4 1437.3L-2486.7 653.6ZM-2475.5 647.1L-1118.2 1430.8L-2475.5 647.1ZM-2464.3 640.6L-1107 1424.3L-2464.3 640.6ZM-2453.1 634.1L-1095.8 1417.8L-2453.1 634.1ZM-2441.9 627.6L-1084.6 1411.3L-2441.9 627.6ZM-2430.7 621.2L-1073.4 1404.9L-2430.7 621.2ZM-2419.4 614.7L-1062.1 1398.4L-2419.4 614.7ZM-2408.2 608.2L-1050.9 1391.9L-2408.2 608.2ZM-2397 601.7L-1039.7 1385.4L-2397 601.7ZM-2385.8 595.3L-1028.5 1379L-2385.8 595.3ZM-2374.6 588.8L-1017.3 1372.5L-2374.6 588.8ZM-2363.3 582.3L-1006.1 1366L-2363.3 582.3ZM-2352.1 575.8L-994.8 1359.5L-2352.1 575.8ZM-2340.9 569.4L-983.6 1353.1L-2340.9 569.4ZM-2329.7 562.9L-972.4 1346.6L-2329.7 562.9ZM-2318.5 556.4L-961.2 1340.1L-2318.5 556.4ZM-2307.3 549.9L-950 1333.6L-2307.3 549.9ZM-2296 543.4L-938.8 1327.1L-2296 543.4ZM-2284.8 537L-927.5 1320.7L-2284.8 537ZM-2273.6 530.5L-916.3 1314.2L-2273.6 530.5ZM-2262.4 524L-905.1 1307.7L-2262.4 524ZM-2251.2 517.5L-893.9 1301.2L-2251.2 517.5ZM-2240 511.1L-882.7 1294.8L-2240 511.1ZM-2228.7 504.6L-871.4 1288.3L-2228.7 504.6ZM-2217.5 498.1L-860.2 1281.8L-2217.5 498.1ZM-2206.3 491.6L-849 1275.3L-2206.3 491.6ZM-2195.1 485.2L-837.8 1268.9L-2195.1 485.2ZM-2183.9 478.7L-826.6 1262.4L-2183.9 478.7ZM-2172.7 472.2L-815.4 1255.9L-2172.7 472.2ZM-2161.4 465.7L-804.1 1249.4L-2161.4 465.7ZM-2150.2 459.2L-792.9 1242.9L-2150.2 459.2ZM-2139 452.8L-781.7 1236.5L-2139 452.8ZM-2127.8 446.3L-770.5 1230L-2127.8 446.3ZM-2116.6 439.8L-759.3 1223.5L-2116.6 439.8ZM-2105.3 433.3L-748.1 1217L-2105.3 433.3ZM-2094.1 426.9L-736.8 1210.6L-2094.1 426.9ZM-2082.9 420.4L-725.6 1204.1L-2082.9 420.4ZM-2071.7 413.9L-714.4 1197.6L-2071.7 413.9ZM-2060.5 407.4L-703.2 1191.1L-2060.5 407.4ZM-2049.3 401L-692 1184.7L-2049.3 401ZM-2038 394.5L-680.8 1178.2L-2038 394.5ZM-2026.8 388L-669.5 1171.7L-2026.8 388ZM-2015.6 381.5L-658.3 1165.2L-2015.6 381.5ZM-2004.4 375L-647.1 1158.7L-2004.4 375ZM-1993.2 368.6L-635.9 1152.3L-1993.2 368.6ZM-1982 362.1L-624.7 1145.8L-1982 362.1ZM-1970.7 355.6L-613.5 1139.3L-1970.7 355.6ZM-1959.5 349.1L-602.2 1132.8L-1959.5 349.1ZM-1948.3 342.7L-591 1126.4L-1948.3 342.7ZM-1937.1 336.2L-579.8 1119.9L-1937.1 336.2ZM-1925.9 329.7L-568.6 1113.4L-1925.9 329.7ZM-1914.7 323.2L-557.4 1106.9L-1914.7 323.2ZM-1903.4 316.8L-546.1 1100.5L-1903.4 316.8ZM-1892.2 310.3L-534.9 1094L-1892.2 310.3ZM-1881 303.8L-523.7 1087.5L-1881 303.8ZM-1869.8 297.3L-512.5 1081L-1869.8 297.3ZM-1858.6 290.8L-501.3 1074.5L-1858.6 290.8ZM-1847.4 284.4L-490.1 1068.1L-1847.4 284.4ZM-1836.1 277.9L-478.8 1061.6L-1836.1 277.9ZM-1824.9 271.4L-467.6 1055.1L-1824.9 271.4ZM-1813.7 264.9L-456.4 1048.6L-1813.7 264.9ZM-1802.5 258.5L-445.2 1042.2L-1802.5 258.5ZM-1791.3 252L-434 1035.7L-1791.3 252ZM-1780 245.5L-422.8 1029.2L-1780 245.5ZM-1768.8 239L-411.5 1022.7L-1768.8 239ZM-1757.6 232.6L-400.3 1016.3L-1757.6 232.6ZM-1746.4 226.1L-389.1 1009.8L-1746.4 226.1ZM-1735.2 219.6L-377.9 1003.3L-1735.2 219.6ZM-377.9 990.3L-1735.2 1774L-377.9 990.3ZM-389.1 983.9L-1746.4 1767.6L-389.1 983.9ZM-400.3 977.4L-1757.6 1761.1L-400.3 977.4ZM-411.5 970.9L-1768.8 1754.6L-411.5 970.9ZM-422.8 964.4L-1780 1748.1L-422.8 964.4ZM-434 958L-1791.3 1741.7L-434 958ZM-445.2 951.5L-1802.5 1735.2L-445.2 951.5ZM-456.4 945L-1813.7 1728.7L-456.4 945ZM-467.6 938.5L-1824.9 1722.2L-467.6 938.5ZM-478.8 932.1L-1836.1 1715.8L-478.8 932.1ZM-490.1 925.6L-1847.4 1709.3L-490.1 925.6ZM-501.3 919.1L-1858.6 1702.8L-501.3 919.1ZM-512.5 912.6L-1869.8 1696.3L-512.5 912.6ZM-523.7 906.1L-1881 1689.8L-523.7 906.1ZM-534.9 899.7L-1892.2 1683.4L-534.9 899.7ZM-546.1 893.2L-1903.4 1676.9L-546.1 893.2ZM-557.4 886.7L-1914.7 1670.4L-557.4 886.7ZM-568.6 880.2L-1925.9 1663.9L-568.6 880.2ZM-579.8 873.8L-1937.1 1657.5L-579.8 873.8ZM-591 867.3L-1948.3 1651L-591 867.3ZM-602.2 860.8L-1959.5 1644.5L-602.2 860.8ZM-613.5 854.3L-1970.7 1638L-613.5 854.3ZM-624.7 847.9L-1982 1631.6L-624.7 847.9ZM-635.9 841.4L-1993.2 1625.1L-635.9 841.4ZM-647.1 834.9L-2004.4 1618.6L-647.1 834.9ZM-658.3 828.4L-2015.6 1612.1L-658.3 828.4ZM-669.5 821.9L-2026.8 1605.6L-669.5 821.9ZM-680.8 815.5L-2038 1599.2L-680.8 815.5ZM-692 809L-2049.3 1592.7L-692 809ZM-703.2 802.5L-2060.5 1586.2L-703.2 802.5ZM-714.4 796L-2071.7 1579.7L-714.4 796ZM-725.6 789.6L-2082.9 1573.3L-725.6 789.6ZM-736.8 783.1L-2094.1 1566.8L-736.8 783.1ZM-748.1 776.6L-2105.3 1560.3L-748.1 776.6ZM-759.3 770.1L-2116.6 1553.8L-759.3 770.1ZM-770.5 763.7L-2127.8 1547.4L-770.5 763.7ZM-781.7 757.2L-2139 1540.9L-781.7 757.2ZM-792.9 750.7L-2150.2 1534.4L-792.9 750.7ZM-804.1 744.2L-2161.4 1527.9L-804.1 744.2ZM-815.4 737.8L-2172.7 1521.5L-815.4 737.8ZM-826.6 731.3L-2183.9 1515L-826.6 731.3ZM-837.8 724.8L-2195.1 1508.5L-837.8 724.8ZM-849 718.3L-2206.3 1502L-849 718.3ZM-860.2 711.8L-2217.5 1495.5L-860.2 711.8ZM-871.4 705.4L-2228.7 1489.1L-871.4 705.4ZM-882.7 698.9L-2240 1482.6L-882.7 698.9ZM-893.9 692.4L-2251.2 1476.1L-893.9 692.4ZM-905.1 685.9L-2262.4 1469.6L-905.1 685.9ZM-916.3 679.5L-2273.6 1463.2L-916.3 679.5ZM-927.5 673L-2284.8 1456.7L-927.5 673ZM-938.8 666.5L-2296 1450.2L-938.8 666.5ZM-950 660L-2307.3 1443.7L-950 660ZM-961.2 653.6L-2318.5 1437.3L-961.2 653.6ZM-972.4 647.1L-2329.7 1430.8L-972.4 647.1ZM-983.6 640.6L-2340.9 1424.3L-983.6 640.6ZM-994.8 634.1L-2352.1 1417.8L-994.8 634.1ZM-1006.1 627.6L-2363.3 1411.3L-1006.1 627.6ZM-1017.3 621.2L-2374.6 1404.9L-1017.3 621.2ZM-1028.5 614.7L-2385.8 1398.4L-1028.5 614.7ZM-1039.7 608.2L-2397 1391.9L-1039.7 608.2ZM-1050.9 601.7L-2408.2 1385.4L-1050.9 601.7ZM-1062.1 595.3L-2419.4 1379L-1062.1 595.3ZM-1073.4 588.8L-2430.7 1372.5L-1073.4 588.8ZM-1084.6 582.3L-2441.9 1366L-1084.6 582.3ZM-1095.8 575.8L-2453.1 1359.5L-1095.8 575.8ZM-1107 569.4L-2464.3 1353.1L-1107 569.4ZM-1118.2 562.9L-2475.5 1346.6L-1118.2 562.9ZM-1129.4 556.4L-2486.7 1340.1L-1129.4 556.4ZM-1140.7 549.9L-2498 1333.6L-1140.7 549.9ZM-1151.9 543.4L-2509.2 1327.1L-1151.9 543.4ZM-1163.1 537L-2520.4 1320.7L-1163.1 537ZM-1174.3 530.5L-2531.6 1314.2L-1174.3 530.5ZM-1185.5 524L-2542.8 1307.7L-1185.5 524ZM-1196.7 517.5L-2554 1301.2L-1196.7 517.5ZM-1208 511.1L-2565.3 1294.8L-1208 511.1ZM-1219.2 504.6L-2576.5 1288.3L-1219.2 504.6ZM-1230.4 498.1L-2587.7 1281.8L-1230.4 498.1ZM-1241.6 491.6L-2598.9 1275.3L-1241.6 491.6ZM-1252.8 485.2L-2610.1 1268.9L-1252.8 485.2ZM-1264.1 478.7L-2621.3 1262.4L-1264.1 478.7ZM-1275.3 472.2L-2632.6 1255.9L-1275.3 472.2ZM-1286.5 465.7L-2643.8 1249.4L-1286.5 465.7ZM-1297.7 459.2L-2655 1242.9L-1297.7 459.2ZM-1308.9 452.8L-2666.2 1236.5L-1308.9 452.8ZM-1320.1 446.3L-2677.4 1230L-1320.1 446.3ZM-1331.4 439.8L-2688.6 1223.5L-1331.4 439.8ZM-1342.6 433.3L-2699.9 1217L-1342.6 433.3ZM-1353.8 426.9L-2711.1 1210.6L-1353.8 426.9ZM-1365 420.4L-2722.3 1204.1L-1365 420.4ZM-1376.2 413.9L-2733.5 1197.6L-1376.2 413.9ZM-1387.4 407.4L-2744.7 1191.1L-1387.4 407.4ZM-1398.7 401L-2756 1184.7L-1398.7 401ZM-1409.9 394.5L-2767.2 1178.2L-1409.9 394.5ZM-1421.1 388L-2778.4 1171.7L-1421.1 388ZM-1432.3 381.5L-2789.6 1165.2L-1432.3 381.5ZM-1443.5 375L-2800.8 1158.7L-1443.5 375ZM-1454.7 368.6L-2812 1152.3L-1454.7 368.6ZM-1466 362.1L-2823.3 1145.8L-1466 362.1ZM-1477.2 355.6L-2834.5 1139.3L-1477.2 355.6ZM-1488.4 349.1L-2845.7 1132.8L-1488.4 349.1ZM-1499.6 342.7L-2856.9 1126.4L-1499.6 342.7ZM-1510.8 336.2L-2868.1 1119.9L-1510.8 336.2ZM-1522.1 329.7L-2879.3 1113.4L-1522.1 329.7ZM-1533.3 323.2L-2890.6 1106.9L-1533.3 323.2ZM-1544.5 316.8L-2901.8 1100.5L-1544.5 316.8ZM-1555.7 310.3L-2913 1094L-1555.7 310.3ZM-1566.9 303.8L-2924.2 1087.5L-1566.9 303.8ZM-1578.1 297.3L-2935.4 1081L-1578.1 297.3ZM-1589.4 290.8L-2946.6 1074.5L-1589.4 290.8ZM-1600.6 284.4L-2957.9 1068.1L-1600.6 284.4ZM-1611.8 277.9L-2969.1 1061.6L-1611.8 277.9ZM-1623 271.4L-2980.3 1055.1L-1623 271.4ZM-1634.2 264.9L-2991.5 1048.6L-1634.2 264.9ZM-1645.4 258.5L-3002.7 1042.2L-1645.4 258.5ZM-1656.7 252L-3013.9 1035.7L-1656.7 252ZM-1667.9 245.5L-3025.2 1029.2L-1667.9 245.5ZM-1679.1 239L-3036.4 1022.7L-1679.1 239ZM-1690.3 232.6L-3047.6 1016.3L-1690.3 232.6ZM-1701.5 226.1L-3058.8 1009.8L-1701.5 226.1ZM-1712.7 219.6L-3070 1003.3L-1712.7 219.6ZM647.1 172.7L396 27.7C387.356 22.689 377.542 20.05 367.55 20.05C357.559 20.05 347.744 22.689 339.1 27.7L88.1001 172.6C70.5 182.8 59.7 201.5 59.7 221.9V511.8C59.7 532.1 70.5 550.9 88.1001 561.1L339.1 706C356.7 716.2 378.4 716.2 396 706L647 561.1C664.6 550.9 675.4 532.2 675.4 511.8V222C675.5 201.6 664.7 182.8 647.1 172.7ZM542.6 447.1C527.7 463.9 501.1 462 490.2 451.4C485.3 454.2 472.3 461.1 459 459.7L362.3 515.2C361 516 359.4 516.4 357.9 516.4H309.3C306.8 516.4 305.9 513.1 308.1 511.8L415.8 449.1C425.5 443.4 425.5 429.4 415.8 423.7L374.8 399.8L342.7 395.1C342.7 395.1 244.4 423.6 208.8 407.3C173.3 391 163.8 407.3 163.8 407.3C163.8 407.3 148.8 420.3 126.3 410.4C114.9 394.5 126.3 384.8 141.5 390C139.7 379.9 148.9 377 156.4 369.5C147.3 368.1 148.9 355.3 146.1 346.6C135.7 334.1 144.7 317.5 156.4 317.5C150.7 287.7 168.3 285.9 186.4 289.8C188.6 261.4 209 246.9 239 259.9C234.8 218.2 286.8 233.9 286.8 233.9C286.8 233.9 270.8 218.4 284 207.9C297.1 197.4 302 207.9 302 207.9C318.6 188.4 351.5 203.2 353.2 216.6C354.5 212 373.8 212.4 373.8 212.4C410.3 184.2 453.2 207.9 449.1 229.6C512.4 204.8 503.9 286 503.9 286C518.7 272.5 517.7 286.6 531.7 294.7C566.6 305.1 551.1 318.2 551.1 318.2C588.8 311.1 610.4 338.1 595.1 359.3C613.5 371.2 613 384.3 605.6 392.9C612.2 400.1 613.5 412.2 602.8 425.4C606.8 454.8 574.7 458.8 542.6 447.1Z" fill="#ACACAC" fill-opacity="0.5"/>
</g>
<defs>
<clipPath id="clip0">
<rect width="731" height="731.2" fill="white"/>
</clipPath>
</defs>
</svg>
