<svg width="676" height="712" viewBox="0 0 676 712" fill="none" xmlns="http://www.w3.org/2000/svg">
<path d="M-1724 193.1L-366.7 976.8L-1724 1760.5L-3081.3 976.8L-1724 193.1ZM-3070 970.3L-1712.7 1754L-3070 970.3ZM-3058.8 963.9L-1701.5 1747.6L-3058.8 963.9ZM-3047.6 957.4L-1690.3 1741.1L-3047.6 957.4ZM-3036.4 950.9L-1679.1 1734.6L-3036.4 950.9ZM-3025.2 944.4L-1667.9 1728.1L-3025.2 944.4ZM-3013.9 938L-1656.7 1721.7L-3013.9 938ZM-3002.7 931.5L-1645.4 1715.2L-3002.7 931.5ZM-2991.5 925L-1634.2 1708.7L-2991.5 925ZM-2980.3 918.5L-1623 1702.2L-2980.3 918.5ZM-2969.1 912.1L-1611.8 1695.8L-2969.1 912.1ZM-2957.9 905.6L-1600.6 1689.3L-2957.9 905.6ZM-2946.6 899.1L-1589.4 1682.8L-2946.6 899.1ZM-2935.4 892.6L-1578.1 1676.3L-2935.4 892.6ZM-2924.2 886.1L-1566.9 1669.8L-2924.2 886.1ZM-2913 879.7L-1555.7 1663.4L-2913 879.7ZM-2901.8 873.2L-1544.5 1656.9L-2901.8 873.2ZM-2890.6 866.7L-1533.3 1650.4L-2890.6 866.7ZM-2879.3 860.2L-1522.1 1643.9L-2879.3 860.2ZM-2868.1 853.8L-1510.8 1637.5L-2868.1 853.8ZM-2856.9 847.3L-1499.6 1631L-2856.9 847.3ZM-2845.7 840.8L-1488.4 1624.5L-2845.7 840.8ZM-2834.5 834.3L-1477.2 1618L-2834.5 834.3ZM-2823.3 827.9L-1466 1611.6L-2823.3 827.9ZM-2812 821.4L-1454.7 1605.1L-2812 821.4ZM-2800.8 814.9L-1443.5 1598.6L-2800.8 814.9ZM-2789.6 808.4L-1432.3 1592.1L-2789.6 808.4ZM-2778.4 801.9L-1421.1 1585.6L-2778.4 801.9ZM-2767.2 795.5L-1409.9 1579.2L-2767.2 795.5ZM-2756 789L-1398.7 1572.7L-2756 789ZM-2744.7 782.5L-1387.4 1566.2L-2744.7 782.5ZM-2733.5 776L-1376.2 1559.7L-2733.5 776ZM-2722.3 769.6L-1365 1553.3L-2722.3 769.6ZM-2711.1 763.1L-1353.8 1546.8L-2711.1 763.1ZM-2699.9 756.6L-1342.6 1540.3L-2699.9 756.6ZM-2688.6 750.1L-1331.4 1533.8L-2688.6 750.1ZM-2677.4 743.7L-1320.1 1527.4L-2677.4 743.7ZM-2666.2 737.2L-1308.9 1520.9L-2666.2 737.2ZM-2655 730.7L-1297.7 1514.4L-2655 730.7ZM-2643.8 724.2L-1286.5 1507.9L-2643.8 724.2ZM-2632.6 717.8L-1275.3 1501.5L-2632.6 717.8ZM-2621.3 711.3L-1264.1 1495L-2621.3 711.3ZM-2610.1 704.8L-1252.8 1488.5L-2610.1 704.8ZM-2598.9 698.3L-1241.6 1482L-2598.9 698.3ZM-2587.7 691.8L-1230.4 1475.5L-2587.7 691.8ZM-2576.5 685.4L-1219.2 1469.1L-2576.5 685.4ZM-2565.3 678.9L-1208 1462.6L-2565.3 678.9ZM-2554 672.4L-1196.7 1456.1L-2554 672.4ZM-2542.8 665.9L-1185.5 1449.6L-2542.8 665.9ZM-2531.6 659.5L-1174.3 1443.2L-2531.6 659.5ZM-2520.4 653L-1163.1 1436.7L-2520.4 653ZM-2509.2 646.5L-1151.9 1430.2L-2509.2 646.5ZM-2498 640L-1140.7 1423.7L-2498 640ZM-2486.7 633.6L-1129.4 1417.3L-2486.7 633.6ZM-2475.5 627.1L-1118.2 1410.8L-2475.5 627.1ZM-2464.3 620.6L-1107 1404.3L-2464.3 620.6ZM-2453.1 614.1L-1095.8 1397.8L-2453.1 614.1ZM-2441.9 607.6L-1084.6 1391.3L-2441.9 607.6ZM-2430.7 601.2L-1073.4 1384.9L-2430.7 601.2ZM-2419.4 594.7L-1062.1 1378.4L-2419.4 594.7ZM-2408.2 588.2L-1050.9 1371.9L-2408.2 588.2ZM-2397 581.7L-1039.7 1365.4L-2397 581.7ZM-2385.8 575.3L-1028.5 1359L-2385.8 575.3ZM-2374.6 568.8L-1017.3 1352.5L-2374.6 568.8ZM-2363.3 562.3L-1006.1 1346L-2363.3 562.3ZM-2352.1 555.8L-994.8 1339.5L-2352.1 555.8ZM-2340.9 549.4L-983.6 1333.1L-2340.9 549.4ZM-2329.7 542.9L-972.4 1326.6L-2329.7 542.9ZM-2318.5 536.4L-961.2 1320.1L-2318.5 536.4ZM-2307.3 529.9L-950 1313.6L-2307.3 529.9ZM-2296 523.4L-938.8 1307.1L-2296 523.4ZM-2284.8 517L-927.5 1300.7L-2284.8 517ZM-2273.6 510.5L-916.3 1294.2L-2273.6 510.5ZM-2262.4 504L-905.1 1287.7L-2262.4 504ZM-2251.2 497.5L-893.9 1281.2L-2251.2 497.5ZM-2240 491.1L-882.7 1274.8L-2240 491.1ZM-2228.7 484.6L-871.4 1268.3L-2228.7 484.6ZM-2217.5 478.1L-860.2 1261.8L-2217.5 478.1ZM-2206.3 471.6L-849 1255.3L-2206.3 471.6ZM-2195.1 465.2L-837.8 1248.9L-2195.1 465.2ZM-2183.9 458.7L-826.6 1242.4L-2183.9 458.7ZM-2172.7 452.2L-815.4 1235.9L-2172.7 452.2ZM-2161.4 445.7L-804.1 1229.4L-2161.4 445.7ZM-2150.2 439.2L-792.9 1222.9L-2150.2 439.2ZM-2139 432.8L-781.7 1216.5L-2139 432.8ZM-2127.8 426.3L-770.5 1210L-2127.8 426.3ZM-2116.6 419.8L-759.3 1203.5L-2116.6 419.8ZM-2105.3 413.3L-748.1 1197L-2105.3 413.3ZM-2094.1 406.9L-736.8 1190.6L-2094.1 406.9ZM-2082.9 400.4L-725.6 1184.1L-2082.9 400.4ZM-2071.7 393.9L-714.4 1177.6L-2071.7 393.9ZM-2060.5 387.4L-703.2 1171.1L-2060.5 387.4ZM-2049.3 381L-692 1164.7L-2049.3 381ZM-2038 374.5L-680.8 1158.2L-2038 374.5ZM-2026.8 368L-669.5 1151.7L-2026.8 368ZM-2015.6 361.5L-658.3 1145.2L-2015.6 361.5ZM-2004.4 355L-647.1 1138.7L-2004.4 355ZM-1993.2 348.6L-635.9 1132.3L-1993.2 348.6ZM-1982 342.1L-624.7 1125.8L-1982 342.1ZM-1970.7 335.6L-613.5 1119.3L-1970.7 335.6ZM-1959.5 329.1L-602.2 1112.8L-1959.5 329.1ZM-1948.3 322.7L-591 1106.4L-1948.3 322.7ZM-1937.1 316.2L-579.8 1099.9L-1937.1 316.2ZM-1925.9 309.7L-568.6 1093.4L-1925.9 309.7ZM-1914.7 303.2L-557.4 1086.9L-1914.7 303.2ZM-1903.4 296.8L-546.1 1080.5L-1903.4 296.8ZM-1892.2 290.3L-534.9 1074L-1892.2 290.3ZM-1881 283.8L-523.7 1067.5L-1881 283.8ZM-1869.8 277.3L-512.5 1061L-1869.8 277.3ZM-1858.6 270.8L-501.3 1054.5L-1858.6 270.8ZM-1847.4 264.4L-490.1 1048.1L-1847.4 264.4ZM-1836.1 257.9L-478.8 1041.6L-1836.1 257.9ZM-1824.9 251.4L-467.6 1035.1L-1824.9 251.4ZM-1813.7 244.9L-456.4 1028.6L-1813.7 244.9ZM-1802.5 238.5L-445.2 1022.2L-1802.5 238.5ZM-1791.3 232L-434 1015.7L-1791.3 232ZM-1780 225.5L-422.8 1009.2L-1780 225.5ZM-1768.8 219L-411.5 1002.7L-1768.8 219ZM-1757.6 212.6L-400.3 996.3L-1757.6 212.6ZM-1746.4 206.1L-389.1 989.8L-1746.4 206.1ZM-1735.2 199.6L-377.9 983.3L-1735.2 199.6ZM-377.9 970.3L-1735.2 1754L-377.9 970.3ZM-389.1 963.9L-1746.4 1747.6L-389.1 963.9ZM-400.3 957.4L-1757.6 1741.1L-400.3 957.4ZM-411.5 950.9L-1768.8 1734.6L-411.5 950.9ZM-422.8 944.4L-1780 1728.1L-422.8 944.4ZM-434 938L-1791.3 1721.7L-434 938ZM-445.2 931.5L-1802.5 1715.2L-445.2 931.5ZM-456.4 925L-1813.7 1708.7L-456.4 925ZM-467.6 918.5L-1824.9 1702.2L-467.6 918.5ZM-478.8 912.1L-1836.1 1695.8L-478.8 912.1ZM-490.1 905.6L-1847.4 1689.3L-490.1 905.6ZM-501.3 899.1L-1858.6 1682.8L-501.3 899.1ZM-512.5 892.6L-1869.8 1676.3L-512.5 892.6ZM-523.7 886.1L-1881 1669.8L-523.7 886.1ZM-534.9 879.7L-1892.2 1663.4L-534.9 879.7ZM-546.1 873.2L-1903.4 1656.9L-546.1 873.2ZM-557.4 866.7L-1914.7 1650.4L-557.4 866.7ZM-568.6 860.2L-1925.9 1643.9L-568.6 860.2ZM-579.8 853.8L-1937.1 1637.5L-579.8 853.8ZM-591 847.3L-1948.3 1631L-591 847.3ZM-602.2 840.8L-1959.5 1624.5L-602.2 840.8ZM-613.5 834.3L-1970.7 1618L-613.5 834.3ZM-624.7 827.9L-1982 1611.6L-624.7 827.9ZM-635.9 821.4L-1993.2 1605.1L-635.9 821.4ZM-647.1 814.9L-2004.4 1598.6L-647.1 814.9ZM-658.3 808.4L-2015.6 1592.1L-658.3 808.4ZM-669.5 801.9L-2026.8 1585.6L-669.5 801.9ZM-680.8 795.5L-2038 1579.2L-680.8 795.5ZM-692 789L-2049.3 1572.7L-692 789ZM-703.2 782.5L-2060.5 1566.2L-703.2 782.5ZM-714.4 776L-2071.7 1559.7L-714.4 776ZM-725.6 769.6L-2082.9 1553.3L-725.6 769.6ZM-736.8 763.1L-2094.1 1546.8L-736.8 763.1ZM-748.1 756.6L-2105.3 1540.3L-748.1 756.6ZM-759.3 750.1L-2116.6 1533.8L-759.3 750.1ZM-770.5 743.7L-2127.8 1527.4L-770.5 743.7ZM-781.7 737.2L-2139 1520.9L-781.7 737.2ZM-792.9 730.7L-2150.2 1514.4L-792.9 730.7ZM-804.1 724.2L-2161.4 1507.9L-804.1 724.2ZM-815.4 717.8L-2172.7 1501.5L-815.4 717.8ZM-826.6 711.3L-2183.9 1495L-826.6 711.3ZM-837.8 704.8L-2195.1 1488.5L-837.8 704.8ZM-849 698.3L-2206.3 1482L-849 698.3ZM-860.2 691.8L-2217.5 1475.5L-860.2 691.8ZM-871.4 685.4L-2228.7 1469.1L-871.4 685.4ZM-882.7 678.9L-2240 1462.6L-882.7 678.9ZM-893.9 672.4L-2251.2 1456.1L-893.9 672.4ZM-905.1 665.9L-2262.4 1449.6L-905.1 665.9ZM-916.3 659.5L-2273.6 1443.2L-916.3 659.5ZM-927.5 653L-2284.8 1436.7L-927.5 653ZM-938.8 646.5L-2296 1430.2L-938.8 646.5ZM-950 640L-2307.3 1423.7L-950 640ZM-961.2 633.6L-2318.5 1417.3L-961.2 633.6ZM-972.4 627.1L-2329.7 1410.8L-972.4 627.1ZM-983.6 620.6L-2340.9 1404.3L-983.6 620.6ZM-994.8 614.1L-2352.1 1397.8L-994.8 614.1ZM-1006.1 607.6L-2363.3 1391.3L-1006.1 607.6ZM-1017.3 601.2L-2374.6 1384.9L-1017.3 601.2ZM-1028.5 594.7L-2385.8 1378.4L-1028.5 594.7ZM-1039.7 588.2L-2397 1371.9L-1039.7 588.2ZM-1050.9 581.7L-2408.2 1365.4L-1050.9 581.7ZM-1062.1 575.3L-2419.4 1359L-1062.1 575.3ZM-1073.4 568.8L-2430.7 1352.5L-1073.4 568.8ZM-1084.6 562.3L-2441.9 1346L-1084.6 562.3ZM-1095.8 555.8L-2453.1 1339.5L-1095.8 555.8ZM-1107 549.4L-2464.3 1333.1L-1107 549.4ZM-1118.2 542.9L-2475.5 1326.6L-1118.2 542.9ZM-1129.4 536.4L-2486.7 1320.1L-1129.4 536.4ZM-1140.7 529.9L-2498 1313.6L-1140.7 529.9ZM-1151.9 523.4L-2509.2 1307.1L-1151.9 523.4ZM-1163.1 517L-2520.4 1300.7L-1163.1 517ZM-1174.3 510.5L-2531.6 1294.2L-1174.3 510.5ZM-1185.5 504L-2542.8 1287.7L-1185.5 504ZM-1196.7 497.5L-2554 1281.2L-1196.7 497.5ZM-1208 491.1L-2565.3 1274.8L-1208 491.1ZM-1219.2 484.6L-2576.5 1268.3L-1219.2 484.6ZM-1230.4 478.1L-2587.7 1261.8L-1230.4 478.1ZM-1241.6 471.6L-2598.9 1255.3L-1241.6 471.6ZM-1252.8 465.2L-2610.1 1248.9L-1252.8 465.2ZM-1264.1 458.7L-2621.3 1242.4L-1264.1 458.7ZM-1275.3 452.2L-2632.6 1235.9L-1275.3 452.2ZM-1286.5 445.7L-2643.8 1229.4L-1286.5 445.7ZM-1297.7 439.2L-2655 1222.9L-1297.7 439.2ZM-1308.9 432.8L-2666.2 1216.5L-1308.9 432.8ZM-1320.1 426.3L-2677.4 1210L-1320.1 426.3ZM-1331.4 419.8L-2688.6 1203.5L-1331.4 419.8ZM-1342.6 413.3L-2699.9 1197L-1342.6 413.3ZM-1353.8 406.9L-2711.1 1190.6L-1353.8 406.9ZM-1365 400.4L-2722.3 1184.1L-1365 400.4ZM-1376.2 393.9L-2733.5 1177.6L-1376.2 393.9ZM-1387.4 387.4L-2744.7 1171.1L-1387.4 387.4ZM-1398.7 381L-2756 1164.7L-1398.7 381ZM-1409.9 374.5L-2767.2 1158.2L-1409.9 374.5ZM-1421.1 368L-2778.4 1151.7L-1421.1 368ZM-1432.3 361.5L-2789.6 1145.2L-1432.3 361.5ZM-1443.5 355L-2800.8 1138.7L-1443.5 355ZM-1454.7 348.6L-2812 1132.3L-1454.7 348.6ZM-1466 342.1L-2823.3 1125.8L-1466 342.1ZM-1477.2 335.6L-2834.5 1119.3L-1477.2 335.6ZM-1488.4 329.1L-2845.7 1112.8L-1488.4 329.1ZM-1499.6 322.7L-2856.9 1106.4L-1499.6 322.7ZM-1510.8 316.2L-2868.1 1099.9L-1510.8 316.2ZM-1522.1 309.7L-2879.3 1093.4L-1522.1 309.7ZM-1533.3 303.2L-2890.6 1086.9L-1533.3 303.2ZM-1544.5 296.8L-2901.8 1080.5L-1544.5 296.8ZM-1555.7 290.3L-2913 1074L-1555.7 290.3ZM-1566.9 283.8L-2924.2 1067.5L-1566.9 283.8ZM-1578.1 277.3L-2935.4 1061L-1578.1 277.3ZM-1589.4 270.8L-2946.6 1054.5L-1589.4 270.8ZM-1600.6 264.4L-2957.9 1048.1L-1600.6 264.4ZM-1611.8 257.9L-2969.1 1041.6L-1611.8 257.9ZM-1623 251.4L-2980.3 1035.1L-1623 251.4ZM-1634.2 244.9L-2991.5 1028.6L-1634.2 244.9ZM-1645.4 238.5L-3002.7 1022.2L-1645.4 238.5ZM-1656.7 232L-3013.9 1015.7L-1656.7 232ZM-1667.9 225.5L-3025.2 1009.2L-1667.9 225.5ZM-1679.1 219L-3036.4 1002.7L-1679.1 219ZM-1690.3 212.6L-3047.6 996.3L-1690.3 212.6ZM-1701.5 206.1L-3058.8 989.8L-1701.5 206.1ZM-1712.7 199.6L-3070 983.3L-1712.7 199.6ZM647.1 152.7L396 7.70001C387.356 2.68899 377.542 0.0499878 367.55 0.0499878C357.559 0.0499878 347.744 2.68899 339.1 7.70001L88.1001 152.6C70.5 162.8 59.7 181.5 59.7 201.9V491.8C59.7 512.1 70.5 530.9 88.1001 541.1L339.1 686C356.7 696.2 378.4 696.2 396 686L647 541.1C664.6 530.9 675.4 512.2 675.4 491.8V202C675.5 181.6 664.7 162.8 647.1 152.7ZM542.6 427.1C527.7 443.9 501.1 442 490.2 431.4C485.3 434.2 472.3 441.1 459 439.7L362.3 495.2C361 496 359.4 496.4 357.9 496.4H309.3C306.8 496.4 305.9 493.1 308.1 491.8L415.8 429.1C425.5 423.4 425.5 409.4 415.8 403.7L374.8 379.8L342.7 375.1C342.7 375.1 244.4 403.6 208.8 387.3C173.3 371 163.8 387.3 163.8 387.3C163.8 387.3 148.8 400.3 126.3 390.4C114.9 374.5 126.3 364.8 141.5 370C139.7 359.9 148.9 357 156.4 349.5C147.3 348.1 148.9 335.3 146.1 326.6C135.7 314.1 144.7 297.5 156.4 297.5C150.7 267.7 168.3 265.9 186.4 269.8C188.6 241.4 209 226.9 239 239.9C234.8 198.2 286.8 213.9 286.8 213.9C286.8 213.9 270.8 198.4 284 187.9C297.1 177.4 302 187.9 302 187.9C318.6 168.4 351.5 183.2 353.2 196.6C354.5 192 373.8 192.4 373.8 192.4C410.3 164.2 453.2 187.9 449.1 209.6C512.4 184.8 503.9 266 503.9 266C518.7 252.5 517.7 266.6 531.7 274.7C566.6 285.1 551.1 298.2 551.1 298.2C588.8 291.1 610.4 318.1 595.1 339.3C613.5 351.2 613 364.3 605.6 372.9C612.2 380.1 613.5 392.2 602.8 405.4C606.8 434.8 574.7 438.8 542.6 427.1Z" fill="#ACACAC" fill-opacity="0.5"/>
</svg>
