<?xml version="1.0" standalone="no"?>
<!DOCTYPE svg PUBLIC "-//W3C//DTD SVG 20010904//EN"
 "http://www.w3.org/TR/2001/REC-SVG-20010904/DTD/svg10.dtd">
<svg version="1.0" xmlns="http://www.w3.org/2000/svg"
 width="240.000000pt" height="240.000000pt" viewBox="0 0 240.000000 240.000000"
 preserveAspectRatio="xMidYMid meet">

<g transform="translate(0.000000,240.000000) scale(0.100000,-0.100000)"
fill="#000000" stroke="none">
<path d="M976 2034 c-310 -75 -478 -434 -333 -713 13 -25 130 -221 260 -436
208 -342 237 -395 237 -431 l0 -41 -52 -7 c-42 -6 -80 -18 -96 -31 -2 -1 7
-19 19 -39 20 -35 23 -36 58 -29 47 10 386 10 431 0 33 -8 36 -6 57 32 l23 39
-40 14 -40 13 125 180 c69 99 125 183 125 186 0 4 -22 125 -50 270 -27 145
-65 352 -85 459 -43 235 -72 305 -166 400 -125 124 -303 175 -473 134z m289
-119 c77 -37 163 -123 200 -200 27 -55 30 -69 30 -170 0 -99 -3 -116 -27 -168
-77 -165 -265 -267 -436 -237 -181 31 -313 165 -342 344 -19 122 19 243 106
337 92 97 174 130 314 126 80 -3 104 -8 155 -32z m340 -878 l46 -248 -87 -125
c-63 -92 -89 -122 -96 -112 -64 94 -118 250 -125 358 -5 81 -4 90 26 158 21
47 47 86 74 111 23 22 56 62 72 90 24 39 31 46 37 33 4 -9 27 -129 53 -265z
m-615 14 c63 -15 157 -13 218 3 l53 13 -8 -31 c-17 -65 -6 -197 22 -286 15
-47 33 -97 41 -112 l14 -27 -55 -11 c-30 -6 -63 -10 -72 -8 -15 3 -293 450
-293 471 0 5 8 6 18 3 9 -3 37 -10 62 -15z m380 -581 l0 -50 -71 0 -70 0 3 37
c3 37 4 38 58 49 84 18 80 19 80 -36z"/>
<path d="M794 1679 c-18 -5 -46 -25 -63 -44 -25 -29 -31 -44 -31 -83 0 -122
127 -183 225 -108 l34 27 34 -38 c19 -21 49 -55 67 -76 l32 -37 61 74 60 75
29 -24 c58 -49 132 -46 186 8 79 80 37 211 -74 231 -60 12 -109 -20 -189 -123
-38 -50 -72 -89 -76 -88 -3 1 -42 44 -88 94 -45 51 -90 97 -99 102 -30 15 -76
20 -108 10z m78 -115 c11 -23 10 -29 -11 -45 -39 -31 -85 6 -61 50 16 31 57
28 72 -5z m484 18 c22 -15 24 -42 4 -62 -24 -24 -34 -25 -54 -4 -38 38 6 97
50 66z"/>
</g>
</svg>
