<svg version="1.0" xmlns="http://www.w3.org/2000/svg" width="320" height="320" viewBox="0 0 240 240"><path d="M97.6 36.6c-31 7.5-47.8 43.4-33.3 71.3 1.3 2.5 13 22.1 26 43.6 20.8 34.2 23.7 39.5 23.7 43.1v4.1l-5.2.7c-4.2.6-8 1.8-9.6 3.1-.2.1.7 1.9 1.9 3.9 2 3.5 2.3 3.6 5.8 2.9 4.7-1 38.6-1 43.1 0 3.3.8 3.6.6 5.7-3.2l2.3-3.9-4-1.4-4-1.3 12.5-18c6.9-9.9 12.5-18.3 12.5-18.6 0-.4-2.2-12.5-5-27-2.7-14.5-6.5-35.2-8.5-45.9-4.3-23.5-7.2-30.5-16.6-40-12.5-12.4-30.3-17.5-47.3-13.4zm28.9 11.9c7.7 3.7 16.3 12.3 20 20 2.7 5.5 3 6.9 3 17 0 9.9-.3 11.6-2.7 16.8-7.7 16.5-26.5 26.7-43.6 23.7-18.1-3.1-31.3-16.5-34.2-34.4-1.9-12.2 1.9-24.3 10.6-33.7 9.2-9.7 17.4-13 31.4-12.6 8 .3 10.4.8 15.5 3.2zm34 87.8 4.6 24.8-8.7 12.5c-6.3 9.2-8.9 12.2-9.6 11.2-6.4-9.4-11.8-25-12.5-35.8-.5-8.1-.4-9 2.6-15.8 2.1-4.7 4.7-8.6 7.4-11.1 2.3-2.2 5.6-6.2 7.2-9 2.4-3.9 3.1-4.6 3.7-3.3.4.9 2.7 12.9 5.3 26.5zM99 134.9c6.3 1.5 15.7 1.3 21.8-.3l5.3-1.3-.8 3.1c-1.7 6.5-.6 19.7 2.2 28.6 1.5 4.7 3.3 9.7 4.1 11.2l1.4 2.7-5.5 1.1c-3 .6-6.3 1-7.2.8-1.5-.3-29.3-45-29.3-47.1 0-.5.8-.6 1.8-.3.9.3 3.7 1 6.2 1.5zm38 58.1v5h-14.1l.3-3.7c.3-3.7.4-3.8 5.8-4.9 8.4-1.8 8-1.9 8 3.6z"/><path d="M79.4 72.1c-1.8.5-4.6 2.5-6.3 4.4-2.5 2.9-3.1 4.4-3.1 8.3 0 12.2 12.7 18.3 22.5 10.8l3.4-2.7 3.4 3.8c1.9 2.1 4.9 5.5 6.7 7.6l3.2 3.7 6.1-7.4 6-7.5 2.9 2.4c5.8 4.9 13.2 4.6 18.6-.8 7.9-8 3.7-21.1-7.4-23.1-6-1.2-10.9 2-18.9 12.3-3.8 5-7.2 8.9-7.6 8.8-.3-.1-4.2-4.4-8.8-9.4-4.5-5.1-9-9.7-9.9-10.2-3-1.5-7.6-2-10.8-1zm7.8 11.5c1.1 2.3 1 2.9-1.1 4.5-3.9 3.1-8.5-.6-6.1-5 1.6-3.1 5.7-2.8 7.2.5zm48.4-1.8c2.2 1.5 2.4 4.2.4 6.2-2.4 2.4-3.4 2.5-5.4.4-3.8-3.8.6-9.7 5-6.6z"/></svg>