<svg width="600" height="450" viewBox="0 0 800 600" fill="none" xmlns="http://www.w3.org/2000/svg"><path opacity=".98" d="M10 105.799c0-28.03 22.723-50.752 50.753-50.752h678.494c28.03 0 50.753 22.723 50.753 50.752v388.403c0 28.03-22.723 50.752-50.753 50.752H60.752c-28.03 0-50.752-22.722-50.752-50.752V105.799z" fill="#2249B3"/><path opacity=".96" d="M70.863 123.938c0-9.592 7.776-17.368 17.368-17.368h623.534c9.592 0 17.367 7.776 17.367 17.368 0 9.592-7.775 17.367-17.367 17.367H88.231c-9.592 0-17.368-7.775-17.368-17.367z" fill="#B5CDFB"/><path opacity=".96" fill-rule="evenodd" clip-rule="evenodd" d="M193.686 265.434a4.23 4.23 0 0 1 4.23 4.229v101.509a4.23 4.23 0 0 1-8.459 0V269.663a4.23 4.23 0 0 1 4.229-4.229z" fill="#75E0E6"/><path opacity=".96" d="M97.523 185.855c0-6.577 5.333-11.91 11.91-11.91h94.693c6.577 0 11.91 5.333 11.91 11.91 0 6.578-5.333 11.91-11.91 11.91h-94.693c-6.577 0-11.91-5.332-11.91-11.91zM97.523 457.285c0-6.578 5.333-11.91 11.91-11.91h94.693c6.577 0 11.91 5.332 11.91 11.91 0 6.577-5.333 11.91-11.91 11.91h-94.693c-6.577 0-11.91-5.333-11.91-11.91zM134.438 411.726c0-6.577 5.332-11.91 11.909-11.91h94.677c6.577 0 11.909 5.333 11.909 11.91 0 6.578-5.332 11.91-11.909 11.91h-94.677c-6.577 0-11.909-5.332-11.909-11.91zM134.438 231.41c0-6.578 5.332-11.91 11.909-11.91h94.677c6.577 0 11.909 5.332 11.909 11.91 0 6.577-5.332 11.91-11.909 11.91h-94.677c-6.577 0-11.909-5.333-11.909-11.91zM217.043 276.968c0-6.577 5.332-11.909 11.91-11.909h80.564c6.577 0 11.91 5.332 11.91 11.909 0 6.578-5.333 11.91-11.91 11.91h-80.564c-6.578 0-11.91-5.332-11.91-11.91zM519.652 321.57c0-6.578 5.333-11.91 11.91-11.91h139.143c6.578 0 11.91 5.332 11.91 11.91s-5.332 11.91-11.91 11.91H531.562c-6.577 0-11.91-5.332-11.91-11.91zM519.652 366.172c0-6.578 5.333-11.91 11.91-11.91h73.572c6.578 0 11.91 5.332 11.91 11.91 0 6.577-5.332 11.909-11.91 11.909h-73.572c-6.577 0-11.91-5.332-11.91-11.909zM337.371 276.968c0-6.577 5.332-11.909 11.91-11.909h267.424c6.578 0 11.91 5.332 11.91 11.909 0 6.578-5.332 11.91-11.91 11.91H349.281c-6.578 0-11.91-5.332-11.91-11.91zM217.043 321.57c0-6.578 5.332-11.91 11.91-11.91h258.55c6.578 0 11.91 5.332 11.91 11.91s-5.332 11.91-11.91 11.91h-258.55c-6.578 0-11.91-5.332-11.91-11.91zM217.043 366.172c0-6.578 5.332-11.91 11.91-11.91h258.55c6.578 0 11.91 5.332 11.91 11.91 0 6.577-5.332 11.909-11.91 11.909h-258.55c-6.578 0-11.91-5.332-11.91-11.909z" fill="#75E0E6"/></svg>