<svg width="600" height="450" viewBox="0 0 800 600" fill="none" xmlns="http://www.w3.org/2000/svg"><path opacity=".12" d="M535.631 416.058v36.176c0 1.757-1.447 3.101-3.101 3.101h-99.949c-1.757 0-3.101-1.344-3.101-3.101v-36.176c0-.207 0-.517.104-.724a3.103 3.103 0 0 1 2.997-2.377h99.949c1.654 0 3.101 1.344 3.101 3.101z" fill="#B5CDFB"/><path d="M173.456 362.621c51.662 0 93.541-41.88 93.541-93.541 0-51.661-41.879-93.541-93.541-93.541-51.661 0-93.54 41.88-93.54 93.541 0 51.661 41.879 93.541 93.54 93.541z" fill="#2249B3"/><path d="M405.809 370.062c-23.979 29.665-61.086 75.557-122.275 93.128-73.695 21.085-167.857-2.998-175.092-39.794-8.475-42.584 107.495-60.155 129.097-146.461 23.98-95.918-96.021-167.96-68.424-215.506 28.63-49.303 201.138-46.615 268.219 51.577 44.238 64.91 25.427 146.358 22.429 158.658-11.266 45.581-35.142 75.039-53.954 98.398zM778.837 175.848c24.083 74.936-16.331 171.991-93.541 209.925-88.476 43.411-203.93-1.241-209.614-41.448-5.478-39.173 96.538-49.509 148.011-154.523 28.838-58.915 19.122-101.293 45.892-110.389 33.179-11.266 90.957 39.38 109.252 96.435z" fill="#2249B3"/><path opacity=".12" d="M663.384 233.11h-99.949c-1.757 0-3.101-1.343-3.101-3.101v-67.184c0-1.757 1.344-3.1 3.101-3.1h99.949c1.757 0 3.101 1.343 3.101 3.1v67.184c0 1.758-1.447 3.101-3.101 3.101zM786.899 233.11H686.95c-1.757 0-3.101-1.343-3.101-3.101v-67.184c0-1.757 1.344-3.1 3.101-3.1h99.949c1.757 0 3.101 1.343 3.101 3.1v67.184c0 1.758-1.447 3.101-3.101 3.101z" fill="#B5CDFB"/><path d="M151.751 463.086c-19.328 0-38.967-3.307-58.192-10.129-33.902-12.197-62.636-34.109-83.204-63.463-.62-.931-.414-2.274.516-2.894.93-.621 2.274-.414 2.894.516 20.052 28.631 48.166 50.13 81.241 61.913 87.546 31.422 184.291-14.264 215.713-101.81 15.194-42.377 13.023-88.166-6.202-128.89-19.225-40.723-53.127-71.525-95.608-86.719-28.527-10.232-59.328-12.61-88.993-6.821-1.137.206-2.17-.517-2.377-1.654-.207-1.137.517-2.171 1.654-2.378 30.388-5.891 61.912-3.514 91.163 7.029 43.411 15.607 78.244 47.132 97.882 88.89 19.742 41.757 22.016 88.683 6.409 132.094-25.427 70.285-91.991 114.316-162.896 114.316z" fill="#75E0E6"/><path d="M78.985 137.915c-.827 0-1.55-.413-1.86-1.137-.517-1.033 0-2.274 1.033-2.79 13.023-6.202 26.77-10.646 40.931-13.437 1.137-.207 2.17.517 2.377 1.654.207 1.137-.517 2.17-1.654 2.377-13.747 2.687-27.184 7.132-40 13.127-.207.206-.517.206-.827.206zM151.544 491.614c-2.791 0-5.478-.103-8.269-.207-1.137 0-2.067-1.033-1.964-2.17 0-1.137 1.034-1.964 2.171-1.964 2.687.103 5.375.207 8.062.207 38.45 0 77.003-11.577 109.252-32.869 35.762-23.566 62.222-57.365 76.693-97.675 17.778-49.51 15.09-103.05-7.339-150.699-22.429-47.649-62.119-83.722-111.629-101.5-19.638-7.028-40.103-10.956-60.672-11.576-1.137 0-2.067-1.034-1.964-2.17 0-1.138.93-1.965 2.067-1.965h.104c20.982.62 41.861 4.652 61.912 11.783 50.543 18.088 91.061 54.885 114.007 103.567 22.945 48.683 25.633 103.36 7.545 153.8-14.781 41.137-41.861 75.66-78.347 99.743-33.075 21.912-72.352 33.695-111.629 33.695zm.207-57.055c-16.124 0-32.559-2.687-48.58-8.475-22.532-8.062-42.894-21.809-58.811-39.587-.724-.827-.724-2.171.206-2.894.827-.724 2.17-.724 2.894.206 15.401 17.261 35.143 30.595 57.158 38.45 72.766 26.047 153.18-11.886 179.227-84.652 12.61-35.142 10.749-73.179-5.271-107.081-16.021-33.902-44.135-59.535-79.381-72.145s-73.282-10.749-107.184 5.168c-8.373 3.928-16.435 8.786-23.773 14.16-.93.724-2.17.517-2.894-.413-.724-.93-.517-2.171.413-2.894 7.649-5.582 15.814-10.543 24.496-14.574 34.833-16.434 74.006-18.295 110.286-5.375 36.176 13.024 65.22 39.381 81.757 74.213 16.538 34.832 18.399 74.006 5.375 110.285-21.085 58.915-76.693 95.608-135.918 95.608zM49.632 75.693c-.827 0-1.55-.414-1.86-1.137-.517-1.034 0-2.274 1.033-2.791 58.399-27.597 123.929-30.698 184.705-8.889 1.033.413 1.654 1.55 1.24 2.687-.413 1.034-1.55 1.654-2.687 1.24-59.639-21.498-124.136-18.397-181.5 8.683-.31.103-.62.207-.93.207z" fill="#75E0E6"/><path d="M151.855 389.288a98.56 98.56 0 0 1-33.282-5.789c-12.61-4.547-23.876-11.369-33.695-20.362-.827-.723-.93-2.067-.104-2.894.724-.827 2.067-.93 2.894-.103a94.393 94.393 0 0 0 32.249 19.535c49.199 17.675 103.67-8.062 121.344-57.261 17.675-49.2-8.062-103.671-57.261-121.345-14.781-5.272-30.801-6.925-46.305-4.548-1.137.207-2.171-.62-2.378-1.757-.207-1.137.62-2.171 1.757-2.377 16.125-2.481 32.869-.827 48.27 4.754 51.369 18.398 78.243 75.246 59.742 126.616-14.471 40.311-52.611 65.531-93.231 65.531z" fill="#75E0E6"/><path d="M151.959 360.139c-7.959 0-15.918-1.344-23.566-4.135-16.021-5.788-29.458-17.157-37.624-32.144-.516-1.034-.206-2.274.827-2.791 1.034-.517 2.274-.207 2.791.827 7.752 14.057 20.259 24.806 35.349 30.181 16.538 5.891 34.316 5.064 50.233-2.377 15.814-7.442 27.804-20.672 33.799-37.21 5.892-16.538 5.065-34.316-2.377-50.233-7.442-15.814-20.672-27.804-37.21-33.799-18.708-6.718-39.07-4.651-56.124 5.582-.931.62-2.274.31-2.791-.724-.62-.93-.31-2.274.723-2.791 18.088-10.852 39.794-13.023 59.639-5.995 36.176 13.024 55.091 53.024 42.171 89.2-6.305 17.571-19.018 31.628-35.866 39.587-9.716 4.548-19.845 6.822-29.974 6.822z" fill="#75E0E6"/><path d="M151.854 326.651c-4.031 0-8.165-.724-12.196-2.171-9.096-3.307-16.435-9.922-20.569-18.708-4.135-8.785-4.651-18.605-1.344-27.804 3.308-9.095 9.923-16.434 18.708-20.568 8.786-4.135 18.605-4.652 27.804-1.344 9.096 3.308 16.435 9.923 20.569 18.708 4.134 8.786 4.651 18.605 1.344 27.804-5.375 14.781-19.432 24.083-34.316 24.083zm0-68.631a32.131 32.131 0 0 0-13.747 3.101c-7.752 3.721-13.643 10.129-16.537 18.294-5.995 16.745 2.687 35.246 19.431 41.241 16.745 5.995 35.246-2.687 41.241-19.432 2.894-8.062 2.481-16.847-1.24-24.599-3.721-7.752-10.13-13.644-18.295-16.538-3.514-1.447-7.132-2.067-10.853-2.067z" fill="#75E0E6"/><path d="M213.56 565.104c81.654 20.155 145.428-36.487 179.123-62.12 24.186-18.295 124.549-5.995 121.655-10.129-5.788-8.372-171.991-92.404-171.991-92.404l-155.661-2.791c.104.104-34.212 80.208 26.874 167.444z" fill="#2249B3"/><path d="M766.33 334.92h-44.549v15.091h44.549V334.92zM783.074 97.088v25.944a2.295 2.295 0 0 1-2.274 2.274H426.998a2.295 2.295 0 0 1-2.274-2.274V97.088a2.294 2.294 0 0 1 2.274-2.273H780.8a2.294 2.294 0 0 1 2.274 2.273zM261.52 561.899c-81.654 20.156-94.057-33.282-127.753-58.915-24.186-18.295-124.549-5.995-121.655-10.129 5.789-8.372 171.992-92.404 171.992-92.404l155.66-2.791c0 .104 119.174 115.453-78.244 164.239z" fill="#75E0E6"/><path d="M152.785 202.826s-29.561-48.89-26.357-70.595c3.308-21.809 33.385-31.008 33.385-31.008s4.135-11.06 20.052-19.329c44.962-23.153 205.687-19.742 201.966 24.6 0 0 18.295 9.922 14.367 26.357-3.928 16.537-28.011 81.034-28.011 81.034l-138.812-92.921-76.59 81.862zM394.647 246.236c0 34.523-17.571 48.579-23.256 48.579-5.684 0-4.754-20.361-4.754-45.478 0-25.116 7.648-49.923 17.571-50.13 9.716-.103 10.439 21.913 10.439 47.029zM127.875 246.236c0 26.46 18.501 51.163 24.6 51.163 6.098 0 5.064-21.498 5.064-47.959 0-26.46-8.062-52.61-18.501-52.817-10.44-.103-11.163 23.153-11.163 49.613zM340.487 444.792c-.31 15.401-12.817 79.794-86.409 72.559-42.791-4.238-64.91-21.603-75.867-39.587-2.997-4.858-5.064-9.716-6.615-14.367-4.548-13.954-3.411-26.047-1.55-29.665 15.504-30.284 14.057-85.272 11.576-115.453-.31-3.927-.62-7.442-1.033-10.439l138.709 1.55 20.465.207c0 .103 1.551 87.753.724 135.195z" fill="#1F253C"/><path d="M258.419 412.44c-.31 13.437-12.093 68.218-80.208 65.427-2.997-4.858-5.064-9.715-6.615-14.367-4.548-13.953-3.411-26.046-1.55-29.664 15.504-30.284 14.057-85.272 11.576-115.453l76.487.723c.413 26.667.827 66.978.31 93.334z" fill="#2249B3"/><path d="M141.209 158.691s8.889 147.908 23.876 169.097c12.506 17.571 33.592 60.569 69.871 79.381 6.305 3.204 25.117 2.997 30.181 2.894 60.569-1.344 90.957-81.965 90.957-81.965 2.688-6.305 19.846-41.861 19.949-89.199.103-47.339-5.582-94.575-5.582-94.575s-119.38-69.045-229.252 14.367z" fill="#1F253C"/><path d="M129.736 142.049c1.757 11.37 7.339 28.527 12.817 36.693 3.101 41.137 11.059 132.714 22.532 149.148 12.817 18.502 45.479 63.257 68.632 66.771 6.718 1.034 26.46.724 34.522.207 35.866-2.274 74.522-66.667 74.522-66.667s-24.599 7.752-32.765-11.473c-8.165-19.225-55.504-37.107-55.504-37.107l-26.77-2.067 21.085-37.52-16.434-20.775-56.848-7.235-1.24-13.437-14.884-10.129-14.884-14.161s-14.987-33.592-14.781-32.248zM348.653 210.164c-.103 0-.414 0-.724-.104l-.827-.103-1.757-.207c-1.24-.206-2.377-.31-3.617-.413a84.58 84.58 0 0 0-7.235-.31c-2.378 0-4.858.103-7.132.31-2.378.207-4.755.62-7.236 1.033-2.48.414-5.064.931-7.545 1.447l-7.752 1.551c-5.271 1.033-10.646 2.17-16.124 2.997l-2.894-23.979c5.271-.414 10.543-.827 16.124-1.241 5.478-.31 11.06-.62 16.951-.516 2.894 0 5.892.206 8.993.516l2.273.311 2.274.413c1.551.31 2.998.517 4.445.93 2.997.724 5.891 1.757 8.682 2.998 1.447.62 2.791 1.24 4.134 2.067.724.413 1.344.723 2.068 1.137.31.207.723.413 1.033.62l1.137.827-5.271 9.716z" fill="#2249B3"/><path d="M158.883 203.549a87.007 87.007 0 0 1 8.372-3.824c2.791-1.137 5.685-2.274 8.579-3.204 2.894-.931 5.892-1.861 8.992-2.584 1.551-.414 3.101-.724 4.858-1.034 1.654-.31 3.308-.517 4.962-.724 3.307-.413 6.408-.62 9.509-.723 3.1-.103 6.098-.103 9.199-.103 5.995 0 11.783.206 17.468.413l-1.654 23.463c-5.995-.62-11.887-1.551-17.571-2.481-5.685-.93-11.267-1.757-16.435-2.17-1.343-.104-2.584-.207-3.824-.207h-1.964c-.62 0-1.344.103-1.964.103-2.687.207-5.478.517-8.165.827-5.582.724-11.266 1.654-16.951 2.481l-3.411-10.233z" fill="#2249B3"/><path d="m248.497 302.258-3.928 15.607s6.512 4.445 9.716 4.548c3.411.104 10.439-5.271 10.439-5.271-9.612 1.447-9.819-5.478-5.995-16.021 0 0-2.997 5.892-10.232 1.137z" fill="#1F253C"/><path d="M278.987 286.341c1.757 4.858-1.24 10.336-6.202 11.06-1.86.31-3.824.723-5.684 1.447-5.272 1.963-9.406 7.338-15.298 6.718-6.098-.62-10.336-6.202-15.09-8.579a36.537 36.537 0 0 0-5.375-2.17c-3.721-1.137-5.581-5.685-3.618-9.303 4.135-7.855 12.61-19.742 18.709-27.804 3.514-4.651 10.439-4.754 14.057-.206 6.511 8.372 15.607 20.775 18.501 28.837z" fill="#FFFAF9"/><path opacity=".74" d="m275.783 296.263-7.442-2.378s-12.506 2.378-16.641-6.615c-2.894-6.305 1.654-23.152 4.651-32.558 1.551.517 2.895 1.447 3.928 2.894 6.615 8.269 15.711 20.672 18.605 28.837 1.447 3.721 0 7.856-3.101 9.82z" fill="#B5CDFB"/><path opacity=".74" d="M393.51 274.868c-1.964 5.788-94.368 33.178-103.257 26.15-8.889-7.029-28.631-38.347-35.762-38.967-7.029-.62-23.256 33.799-33.076 35.556-1.963.31-6.718.413-13.126-.103-.517 0-1.034-.104-1.551-.104-1.757-.103-3.617-.31-5.478-.517-2.274-.206-4.651-.516-7.132-.827-1.86-.206-3.721-.516-5.581-.826-2.377-.414-4.755-.827-7.235-1.241-24.807-4.754-52.094-14.367-54.058-31.938-2.584-23.566.517-61.189 2.171-75.143.413-3.617 3.824-6.615 7.028-5.271 3.721 1.55 8.373 3.101 13.851 4.651 2.377.62 4.858 1.344 7.442 1.964 1.86.413 3.824.93 5.788 1.447 2.377.517 4.858 1.137 7.338 1.654 1.551.31 3.101.62 4.755 1.033 2.377.517 4.858 1.034 7.338 1.447 2.481.414 4.962.931 7.442 1.344 2.378.413 4.858.827 7.236 1.24 21.498 3.618 42.791 6.099 54.987 6.512 12.3.414 36.486-2.067 61.086-5.271 2.171-.31 4.444-.62 6.615-.931 1.757-.206 3.514-.413 5.168-.723 2.171-.31 4.445-.62 6.615-.93 1.344-.207 2.791-.414 4.134-.62 2.274-.311 4.445-.621 6.616-.931 2.48-.31 4.857-.723 7.131-1.033 2.274-.31 4.445-.724 6.615-1.034 8.579-1.344 16.021-2.481 21.499-3.411 5.375-.827 10.233 3.101 10.75 8.786 2.067 21.395 6.201 73.489 4.651 78.037z" fill="#B5CDFB"/><path d="M297.799 296.367c-3.204 0-5.581-.414-6.821-1.344-3.721-2.998-9.406-9.923-15.504-17.365-7.752-9.509-17.365-21.292-21.086-21.602h-.103c-2.791 0-8.166 8.269-13.024 15.504-6.201 9.406-12.713 19.225-18.191 20.259-7.132 1.24-60.982-2.171-84.652-19.845-6.512-4.858-10.233-10.543-10.956-16.641-2.687-23.877.62-57.055 2.17-70.182.311-2.377 1.654-4.548 3.721-5.788 1.551-.93 3.308-1.034 4.858-.414 23.566 9.923 88.89 20.259 115.867 21.293 24.703.93 95.815-10.026 125.376-14.781 2.791-.413 5.581.31 7.855 2.067 2.377 1.861 3.928 4.652 4.135 7.752 2.894 31.008 5.994 68.838 4.444 73.179-1.55 4.341-34.109 14.057-40.62 16.021-7.752 2.171-41.965 11.887-57.469 11.887zm-43.514-42.481h.31c4.341.413 11.783 9.095 22.636 22.429 5.995 7.338 11.576 14.16 15.09 16.951 1.034.827 5.478 2.17 25.117-1.654 32.662-6.512 74.522-20.569 76.383-23.98 1.033-2.997-.724-29.974-4.548-72.145-.207-2.481-1.447-4.754-3.307-6.202-1.758-1.343-3.928-1.963-6.202-1.55-29.561 4.755-100.88 15.711-125.789 14.884-27.184-1.034-92.921-11.473-116.694-21.499-1.137-.517-2.17-.103-2.894.31-1.344.827-2.377 2.377-2.584 4.135-1.55 13.023-4.755 45.995-2.171 69.664.621 5.478 4.032 10.646 10.026 15.091 23.153 17.261 75.97 20.672 82.895 19.432 4.651-.827 11.06-10.647 16.745-19.225 6.821-10.336 11.266-16.641 14.987-16.641z" fill="#E2F0F1"/><path d="M233.716 346.186s5.582 8.062 28.527 9.612c0 0-7.028 1.654-12.609 1.654-5.582 0-13.437-2.894-13.954-5.582-.31-2.79-1.964-5.684-1.964-5.684zM219.968 330.786s20.879 7.855 29.665 8.269c8.785.413 33.902-5.168 33.902-5.168s-16.434 0-29.044-1.55c-7.546-.827-25.53-.621-34.523-1.551z" fill="#1F253C"/><path d="M782.764 122.515H428.962c-1.55 0-2.79-1.24-2.79-2.791V93.677c0-1.55 1.24-2.79 2.79-2.79h353.802a2.78 2.78 0 0 1 2.791 2.79v25.944c.103 1.654-1.241 2.894-2.791 2.894zM428.962 91.92a1.742 1.742 0 0 0-1.757 1.757v25.944c0 1.033.827 1.757 1.757 1.757h353.802c1.034 0 1.757-.827 1.757-1.757V93.677a1.742 1.742 0 0 0-1.757-1.757H428.962zM532.736 227.116h-99.949c-1.964 0-3.617-1.654-3.617-3.618v-67.184c0-1.964 1.653-3.618 3.617-3.618h99.949c1.964 0 3.618 1.654 3.618 3.618v67.184c0 1.964-1.55 3.618-3.618 3.618zm-99.949-73.386a2.559 2.559 0 0 0-2.584 2.584v67.184a2.559 2.559 0 0 0 2.584 2.584h99.949a2.559 2.559 0 0 0 2.584-2.584v-67.184a2.559 2.559 0 0 0-2.584-2.584h-99.949zM527.982 459.159h-99.846c-1.964 0-3.618-1.653-3.618-3.617v-15.711h1.034v15.711a2.559 2.559 0 0 0 2.584 2.584h99.949a2.559 2.559 0 0 0 2.584-2.584v-36.176a2.559 2.559 0 0 0-2.584-2.584h-13.54v-1.034h13.54c1.964 0 3.618 1.654 3.618 3.618v36.176c-.104 2.067-1.654 3.617-3.721 3.617zM533.047 398.28h-99.949c-1.964 0-3.618-1.654-3.618-3.618V247.064c0-1.964 1.654-3.618 3.618-3.618h99.949c1.964 0 3.618 1.654 3.618 3.618v147.598c0 1.964-1.654 3.618-3.618 3.618zm-99.949-153.8a2.559 2.559 0 0 0-2.584 2.584v147.598a2.559 2.559 0 0 0 2.584 2.584h99.949a2.559 2.559 0 0 0 2.584-2.584V247.064a2.559 2.559 0 0 0-2.584-2.584h-99.949zM656.252 227.116h-99.95c-1.963 0-3.617-1.654-3.617-3.618v-67.184c0-1.964 1.654-3.618 3.617-3.618h99.95c1.964 0 3.617 1.654 3.617 3.618v67.184c0 1.964-1.653 3.618-3.617 3.618zm-99.95-73.386a2.559 2.559 0 0 0-2.584 2.584v67.184a2.559 2.559 0 0 0 2.584 2.584h99.95a2.559 2.559 0 0 0 2.584-2.584v-67.184a2.559 2.559 0 0 0-2.584-2.584h-99.95z" fill="#B5CDFB"/><path d="M656.046 455.231h-99.949c-1.758 0-3.101-1.344-3.101-3.101v-36.176c0-1.757 1.343-3.1 3.101-3.1h99.949c1.757 0 3.101 1.343 3.101 3.1v36.176c0 1.757-1.447 3.101-3.101 3.101z" fill="#2249B3"/><path d="M656.458 398.28h-99.95c-1.963 0-3.617-1.654-3.617-3.618V247.064c0-1.964 1.654-3.618 3.617-3.618h99.95c1.963 0 3.617 1.654 3.617 3.618v147.598c0 1.964-1.55 3.618-3.617 3.618zm-99.846-153.8a2.559 2.559 0 0 0-2.584 2.584v147.598a2.559 2.559 0 0 0 2.584 2.584h99.949a2.559 2.559 0 0 0 2.584-2.584V247.064a2.559 2.559 0 0 0-2.584-2.584h-99.949zM779.767 227.116h-99.949c-1.964 0-3.618-1.654-3.618-3.618v-67.184c0-1.964 1.654-3.618 3.618-3.618h99.949c1.964 0 3.618 1.654 3.618 3.618v67.184c0 1.964-1.654 3.618-3.618 3.618zm-99.949-73.386a2.559 2.559 0 0 0-2.584 2.584v67.184a2.559 2.559 0 0 0 2.584 2.584h99.949a2.559 2.559 0 0 0 2.584-2.584v-67.184a2.559 2.559 0 0 0-2.584-2.584h-99.949z" fill="#B5CDFB"/><path opacity=".12" d="M539.869 233.11h-99.95c-1.757 0-3.1-1.343-3.1-3.101v-67.184c0-1.757 1.343-3.1 3.1-3.1h99.95c1.757 0 3.1 1.343 3.1 3.1v67.184c0 1.758-1.343 3.101-3.1 3.101z" fill="#B5CDFB"/><path opacity=".12" d="M528.188 174.195h-90.75v10.13h90.75v-10.13zM528.188 189.078h-90.75v10.129h90.75v-10.129zM528.188 203.963h-90.75v10.129h90.75v-10.129zM651.704 172.541h-90.75v10.129h90.75v-10.129zM651.704 187.425h-90.75v10.129h90.75v-10.129zM651.704 202.31h-90.75v10.129h90.75V202.31zM775.116 172.541h-90.75v10.129h90.75v-10.129zM775.116 187.425h-90.75v10.129h90.75v-10.129zM775.116 202.31h-90.75v10.129h90.75V202.31z" fill="#B5CDFB"/><path d="M779.456 455.231h-99.949c-1.757 0-3.101-1.344-3.101-3.101v-36.176c0-1.757 1.344-3.1 3.101-3.1h99.949c1.757 0 3.101 1.343 3.101 3.1v36.176c0 1.757-1.344 3.101-3.101 3.101z" fill="#75E0E6"/><path d="M779.973 398.28h-99.949c-1.964 0-3.618-1.654-3.618-3.618V247.064c0-1.964 1.654-3.618 3.618-3.618h99.949c1.964 0 3.618 1.654 3.618 3.618v147.598c0 1.964-1.654 3.618-3.618 3.618zm-99.949-153.8a2.559 2.559 0 0 0-2.584 2.584v147.598a2.559 2.559 0 0 0 2.584 2.584h99.949a2.559 2.559 0 0 0 2.584-2.584V247.064a2.559 2.559 0 0 0-2.584-2.584h-99.949z" fill="#B5CDFB"/><path opacity=".12" d="M786.899 403.138H686.95c-1.757 0-3.101-1.344-3.101-3.101V252.335c0-1.757 1.344-3.101 3.101-3.101h99.949c1.757 0 3.101 1.344 3.101 3.101v147.702c0 1.654-1.447 3.101-3.101 3.101z" fill="#B5CDFB"/><path d="M519.92 259.674h-73.696v6.925h73.696v-6.925zM766.434 259.674h-73.696v6.925h73.696v-6.925z" fill="#75E0E6"/><path opacity=".74" d="M717.854 288.099h-25.116v15.09h25.116v-15.09zM737.182 288.099h-15.401v15.09h15.401v-15.09z" fill="#B5CDFB"/><path d="M766.331 288.099h-25.117v15.09h25.117v-15.09zM737.286 311.561h-44.548v15.09h44.548v-15.09zM766.331 311.561h-25.117v15.09h25.117v-15.09z" fill="#75E0E6"/><path opacity=".74" d="M717.854 334.92h-25.116v15.091h25.116V334.92z" fill="#B5CDFB"/><path d="M717.854 358.279h-25.116v15.091h25.116v-15.091z" fill="#75E0E6"/><path opacity=".74" d="M737.182 358.279h-15.401v15.091h15.401v-15.091zM766.331 358.279h-25.117v15.091h25.117v-15.091zM717.854 272.077h-25.116v6.925h25.116v-6.925z" fill="#B5CDFB"/><path d="M519.92 330.372h-73.696v3.204h73.696v-3.204zM519.92 336.987h-73.696v3.204h73.696v-3.204zM519.92 343.706h-73.696v3.204h73.696v-3.204zM519.92 350.424h-73.696v3.204h73.696v-3.204zM519.92 357.039h-73.696v3.204h73.696v-3.204zM519.92 363.758h-73.696v3.204h73.696v-3.204zM519.92 370.373h-73.696v3.204h73.696v-3.204zM519.92 377.09h-73.696v3.204h73.696v-3.204zM527.464 275.488h-88.786v43.515h88.786v-43.515zM650.979 259.674h-88.786v43.514h88.786v-43.514zM650.979 308.563h-88.786v5.995h88.786v-5.995z" fill="#75E0E6"/><path d="M585.553 319.933h-23.36v5.994h23.36v-5.994z" fill="#2249B3"/><path d="M650.979 336.264h-88.786v43.514h88.786v-43.514zM650.979 385.256h-88.786v5.995h88.786v-5.995z" fill="#75E0E6"/><path opacity=".2" d="M717.853 424.947h-33.695v6.719h33.695v-6.719zM774.908 436.42h-90.75v6.718h90.75v-6.718zM594.855 424.947H561.16v6.719h33.695v-6.719zM651.91 436.42h-90.75v6.718h90.75v-6.718z" fill="#B5CDFB"/><path opacity=".2" d="M645.089 272.49h-11.886v11.887h11.886V272.49zM645.089 350.114h-11.886v11.887h11.886v-11.887z" fill="#1F253C"/><path d="M538.007 272.077h-3.721v54.574h3.721v-54.574zM784.935 160.138h-3.721v54.574h3.721v-54.574zM661.522 339.674h-3.721v54.574h3.721v-54.574z" fill="#B5CDFB"/><path d="M115.884 468.461h-17.26v17.261h17.26v-17.261zM133.147 485.723h-17.261v17.261h17.261v-17.261z" fill="#161A29" fill-opacity=".3"/><path d="M765.71 102.463h-11.887v11.886h11.887v-11.886zM642.505 268.46h-11.886v11.886h11.886V268.46z" fill="#2249B3"/><path d="M433.201 269.079h-4.548c-2.067 0-3.618-1.654-3.618-3.618v-4.547c0-2.068 1.654-3.618 3.618-3.618h4.548c2.067 0 3.617 1.654 3.617 3.618v4.547c0 1.964-1.654 3.618-3.617 3.618zM526.947 250.474h-8.475c-.93 0-1.757-.827-1.757-1.757 0-.93.827-1.757 1.757-1.757h8.475c.931 0 1.757.827 1.757 1.757-.103 1.034-.826 1.757-1.757 1.757zM652.738 250.474h-8.476c-.93 0-1.757-.827-1.757-1.757 0-.93.827-1.757 1.757-1.757h8.476c.93 0 1.757.827 1.757 1.757-.103 1.034-.827 1.757-1.757 1.757zM534.597 145.978h-8.476c-.93 0-1.757-.827-1.757-1.757 0-.93.827-1.757 1.757-1.757h8.476c.93 0 1.757.827 1.757 1.757 0 .93-.724 1.757-1.757 1.757zM781.317 382.155v-8.476c0-.93.827-1.757 1.757-1.757.93 0 1.757.827 1.757 1.757v8.476c0 .93-.827 1.757-1.757 1.757-.93-.104-1.757-.827-1.757-1.757z" fill="#75E0E6"/><path opacity=".68" d="M223.689 247.168s-.103 0 0 0c-26.563-2.274-53.024-7.029-78.657-14.057-1.964-.517-3.514-1.757-4.444-3.515-.931-1.653-1.137-3.514-.62-5.271 1.033-3.618 5.064-5.788 8.785-4.755a422.954 422.954 0 0 0 82.792 14.161c.62 0 1.033.517.93 1.137-.104.62-.517 1.033-1.137.93-28.011-1.964-56.021-6.822-83.205-14.264-2.687-.723-5.478.724-6.202 3.411-.31 1.241-.206 2.481.414 3.618.723 1.24 1.86 2.067 3.204 2.48 25.53 7.029 51.887 11.784 78.244 14.057.62 0 1.033.517.93 1.137-.104.517-.517.931-1.034.931zM280.641 248.408a1.036 1.036 0 0 1-1.034-1.034c0-.62.414-1.033 1.034-1.033 32.661-1.447 65.22-6.512 96.745-15.194 1.343-.414 2.48-1.241 3.204-2.481.62-1.137.827-2.48.413-3.617-.723-2.584-3.514-4.135-6.201-3.411-31.732 8.785-64.497 13.747-97.469 14.987-.62.103-1.033-.414-1.033-1.034 0-.62.413-1.033 1.033-1.033 32.765-1.241 65.427-6.202 96.952-14.988 3.721-1.033 7.649 1.137 8.786 4.755.516 1.757.31 3.618-.621 5.271-.93 1.758-2.584 2.894-4.444 3.515-31.835 8.682-64.497 13.85-97.365 15.297z" fill="#2249B3"/><path d="M658.629 145.978h-8.476c-.93 0-1.757-.827-1.757-1.757 0-.93.827-1.757 1.757-1.757h8.476c.93 0 1.757.827 1.757 1.757 0 .93-.827 1.757-1.757 1.757zM781.318 145.978h-8.475c-.931 0-1.757-.827-1.757-1.757 0-.93.826-1.757 1.757-1.757h8.475c.93 0 1.757.827 1.757 1.757 0 .93-.723 1.757-1.757 1.757z" fill="#75E0E6"/><path d="M642.505 346.083h-11.886v11.886h11.886v-11.886z" fill="#2249B3"/><path opacity=".74" d="M743.178 102.463h-11.886v11.886h11.886v-11.886z" fill="#B5CDFB"/><path d="M541.521 238.278c-.31 0-.517-.207-.517-.517v-50.336c0-.31.207-.517.517-.517.31 0 .517.207.517.517v50.336c0 .31-.207.517-.517.517zM424.932 382.775c-.31 0-.517-.206-.517-.517v-50.336c0-.31.207-.517.517-.517.31 0 .517.207.517.517v50.336c0 .207-.207.517-.517.517zM419.764 396.109c-.31 0-.517-.206-.517-.517v-50.336c0-.31.207-.517.517-.517.31 0 .517.207.517.517v50.336c0 .311-.207.517-.517.517zM419.764 340.812c-.31 0-.517-.207-.517-.517V294.3c0-.31.207-.517.517-.517.31 0 .517.207.517.517v45.995c0 .207-.207.517-.517.517z" fill="#B5CDFB"/><path opacity=".1" d="M346.792 285.926c-2.687.621-4.961 1.034-6.512 1.344l-26.46-89.51c2.171-.31 4.445-.62 6.615-.93l26.357 89.096z" fill="#fff"/><path opacity=".16" d="M358.162 283.136c-2.171.62-4.341 1.137-6.408 1.654-.104-.103-.104-.31-.104-.517l-26.046-88.166c2.17-.31 4.444-.62 6.615-.93l25.943 87.752v.207z" fill="#fff"/><path opacity=".59" d="M369.53 279.725a148.513 148.513 0 0 1-6.305 2.067c-.103-.206-.103-.413-.207-.62l-26.667-86.512c2.274-.31 4.445-.62 6.615-.931l26.564 85.996z" fill="#fff"/><path opacity=".63" d="M380.59 275.075a56.54 56.54 0 0 1-6.201 2.79l-24.29-85.272c2.274-.31 4.445-.723 6.615-1.033l23.876 83.515z" fill="#fff"/><path opacity=".1" d="M186.066 286.651c-2.377-.414-4.858-.931-7.338-1.447L150.2 186.288c2.378.62 4.858 1.344 7.442 1.964l28.424 98.399z" fill="#fff"/><path opacity=".16" d="M198.883 288.511c-2.274-.31-4.651-.621-7.132-.931l-28.217-97.778c2.377.517 4.858 1.137 7.339 1.654l28.01 97.055z" fill="#fff"/><path opacity=".59" d="M211.389 289.649c-2.17-.104-4.547-.31-7.028-.517l-28.838-96.642c2.378.517 4.858 1.034 7.339 1.447l28.527 95.712z" fill="#fff"/><path opacity=".63" d="M223.793 289.234c-.413.207-.723.311-1.137.311-1.033.206-2.997.206-5.685.206l-26.563-94.574c2.377.413 4.858.827 7.235 1.24l26.15 92.817z" fill="#fff"/><path opacity=".2" d="M393.82 259.777c13.757 0 24.909-11.153 24.909-24.91s-11.152-24.91-24.909-24.91c-13.758 0-24.91 11.153-24.91 24.91s11.152 24.91 24.91 24.91z" fill="#B5CDFB"/><path d="M390.72 253.782c-11.577 0-20.982-9.406-20.982-20.983 0-11.576 9.405-20.982 20.982-20.982 11.576 0 20.982 9.406 20.982 20.982 0 11.577-9.406 20.983-20.982 20.983zm0-40.931c-10.957 0-19.949 8.992-19.949 19.948 0 10.957 8.992 19.949 19.949 19.949 10.956 0 19.948-8.992 19.948-19.949 0-10.956-8.992-19.948-19.948-19.948z" fill="#75E0E6"/><path d="M390.719 247.477c-8.062 0-14.677-6.615-14.677-14.677s6.615-14.677 14.677-14.677 14.677 6.615 14.677 14.677-6.615 14.677-14.677 14.677zm0-28.32a13.63 13.63 0 0 0-13.643 13.643c0 7.545 6.098 13.644 13.643 13.644a13.631 13.631 0 0 0 13.644-13.644c0-7.545-6.202-13.643-13.644-13.643z" fill="#75E0E6"/><path d="M390.72 243.137c-5.684 0-10.336-4.651-10.336-10.336 0-5.685 4.652-10.336 10.336-10.336 5.685 0 10.336 4.651 10.336 10.336 0 5.685-4.651 10.336-10.336 10.336zm0-19.639c-5.168 0-9.302 4.238-9.302 9.303 0 5.064 4.238 9.302 9.302 9.302 5.065 0 9.303-4.238 9.303-9.302 0-5.065-4.135-9.303-9.303-9.303z" fill="#75E0E6"/><path d="M390.72 238.277c-2.998 0-5.478-2.48-5.478-5.478 0-2.997 2.48-5.478 5.478-5.478 2.997 0 5.478 2.481 5.478 5.478 0 2.998-2.481 5.478-5.478 5.478zm0-9.922a4.412 4.412 0 0 0-4.445 4.444 4.412 4.412 0 0 0 4.445 4.445 4.412 4.412 0 0 0 4.444-4.445 4.412 4.412 0 0 0-4.444-4.444z" fill="#75E0E6"/><path d="M390.719 258.226c-13.954 0-25.427-11.369-25.427-25.426 0-14.057 11.37-25.427 25.427-25.427s25.426 11.37 25.426 25.427-11.473 25.426-25.426 25.426zm0-49.819c-13.437 0-24.393 10.956-24.393 24.393 0 13.436 10.956 24.393 24.393 24.393 13.437 0 24.393-10.957 24.393-24.393 0-13.437-10.956-24.393-24.393-24.393z" fill="#75E0E6"/><path opacity=".11" d="M169.352 215.757c22.1-77.751 19.85-146.513-5.023-153.583-24.874-7.07-62.954 50.229-85.053 127.981-22.1 77.751-19.85 146.513 5.024 153.583 24.874 7.07 62.953-50.229 85.052-127.981z" fill="#75E0E6"/><path opacity=".33" d="M151.189 202.799c14.015-49.309 12.557-92.925-3.257-97.42-15.814-4.495-39.995 31.834-54.01 81.143-14.015 49.308-12.556 92.924 3.257 97.419 15.814 4.495 39.995-31.834 54.01-81.142z" fill="#2249B3"/><path opacity=".33" d="M144.978 200.99c9.13-32.122 8.207-60.528-2.061-63.446-10.268-2.919-25.993 20.755-35.123 52.877-9.13 32.122-8.207 60.528 2.061 63.446 10.268 2.919 25.993-20.755 35.123-52.877z" fill="#2249B3"/><path d="M111.544 255.747c-.724 0-1.447-.104-2.068-.311-5.684-1.653-9.095-9.819-9.509-23.152-.413-13.024 1.964-29.561 6.822-46.512 4.858-16.951 11.473-32.249 18.708-43.101 7.339-11.06 14.574-16.331 20.259-14.678 5.685 1.654 9.096 9.82 9.509 23.153.413 13.023-1.964 29.561-6.822 46.512-9.612 33.696-25.323 58.089-36.899 58.089zm32.041-126.72c-4.858 0-10.956 5.065-17.054 14.367-7.132 10.75-13.747 25.944-18.502 42.791-4.754 16.745-7.131 33.179-6.718 46.099.413 12.506 3.514 20.465 8.579 21.912.62.207 1.24.207 1.86.207 10.75 0 26.254-24.6 35.453-57.158 4.754-16.745 7.132-33.179 6.718-46.099-.413-12.506-3.514-20.465-8.579-21.912-.62-.104-1.137-.207-1.757-.207z" fill="#E2F0F1"/><path d="M118.883 226.805c-.31 0-.62 0-.93-.104l.206-1.24c.931.207 1.861 0 2.998-.62l.62 1.137c-1.034.517-1.964.827-2.894.827zm-4.134-2.481c-.621-.93-1.137-2.067-1.551-3.411l1.241-.31a10.77 10.77 0 0 0 1.343 3.101l-1.033.62zm10.026-.62-.931-.93c.724-.724 1.551-1.551 2.274-2.584l1.034.827c-.827 1.033-1.551 1.963-2.377 2.687zm4.547-5.685-1.137-.723c.621-.931 1.241-1.964 1.861-2.998l1.137.62a40.57 40.57 0 0 1-1.861 3.101zm-16.744-.62c-.103-1.137-.207-2.274-.31-3.618h1.344c0 1.241.103 2.378.31 3.515l-1.344.103zm20.259-5.582-1.137-.62c.516-1.033 1.033-2.067 1.447-3.204l1.24.517c-.517 1.137-1.034 2.171-1.55 3.307zm-19.225-1.653h-1.344c0-1.137.103-2.378.207-3.618l1.343.103c-.103 1.241-.206 2.378-.206 3.515zm22.119-4.962-1.241-.516c.414-1.034.827-2.171 1.241-3.308l1.24.414a61.95 61.95 0 0 1-1.24 3.41zm-21.499-2.067-1.344-.206c.103-1.137.31-2.378.517-3.515l1.24.207c-.103 1.24-.31 2.377-.413 3.514zm23.876-4.651-1.24-.413c.31-1.137.723-2.274 1.033-3.411.104-.31.207-.724.31-1.034l1.241.31c-.104.31-.207.724-.31 1.034-.311 1.24-.724 2.377-1.034 3.514zm-22.739-2.274-1.241-.31c.207-1.137.517-2.274.827-3.514l1.241.31c-.31 1.24-.621 2.377-.827 3.514zm24.91-5.685-1.241-.31c.31-1.137.517-2.274.724-3.411l1.24.31c-.103 1.034-.413 2.274-.723 3.411zm-23.256-1.137-1.241-.31.104-.517c.31-.93.516-1.963.826-2.894l1.241.414c-.31.93-.62 1.86-.827 2.894l-.103.413zm24.703-5.891-1.241-.207c.207-1.24.414-2.377.517-3.514l1.344.207c-.207 1.137-.414 2.274-.62 3.514zm-22.533-.827-1.24-.413a115.03 115.03 0 0 1 1.24-3.308l1.24.517c-.413.93-.826 2.067-1.24 3.204zm23.463-6.305-1.344-.103c.103-1.241.207-2.378.207-3.515h1.344c-.104 1.241-.104 2.481-.207 3.618zm-20.879-.31-1.24-.517c.517-1.137 1.033-2.17 1.447-3.307l1.137.62c-.414 1.033-.93 2.067-1.344 3.204zm2.998-6.305-1.137-.62a40.9 40.9 0 0 1 1.86-3.101l1.137.723c-.62.827-1.24 1.861-1.86 2.998zm16.744-.517c-.104-1.24-.207-2.377-.31-3.514l1.343-.207c.207 1.137.311 2.274.311 3.618l-1.344.103zm-12.92-5.478-1.034-.827c.827-1.033 1.551-1.964 2.378-2.791l.93.931c-.724.827-1.551 1.757-2.274 2.687zm11.783-1.344c-.414-1.24-.93-2.274-1.447-2.997l1.033-.827c.724.827 1.241 1.964 1.654 3.411l-1.24.413zM133.457 159l-.724-1.136c1.344-.827 2.584-1.137 3.721-1.137l-.103 1.343c-.827 0-1.861.31-2.894.93z" fill="#385A7D"/><path d="M103.276 288.305c-1.034 0-2.068-.103-3.101-.413-.104 0-.207 0-.207-.104l.414-1.24.206.103c1.034.31 1.964.414 3.101.414v1.343c-.103-.103-.207-.103-.413-.103zm4.031-.62-.414-1.24a16.428 16.428 0 0 0 3.204-1.344l.621 1.137c-1.137.62-2.274 1.137-3.411 1.447zm-10.646-1.551c-.93-.723-1.86-1.55-2.688-2.584l1.034-.826c.723.93 1.55 1.653 2.48 2.273l-.826 1.137zm17.157-1.757-.723-1.033c.93-.62 1.86-1.344 2.791-2.171l.826 1.034c-1.033.827-1.963 1.55-2.894 2.17zm-21.912-3.824c-.517-1.034-1.137-2.067-1.55-3.308l1.24-.516c.413 1.137.93 2.17 1.55 3.1l-1.24.724zm27.39-.827-.93-.93c.827-.827 1.654-1.654 2.481-2.584l.93.827c-.827 1.033-1.654 1.964-2.481 2.687zm4.858-5.271-1.033-.827 2.17-2.791 1.034.827-2.171 2.791zm-35.142-.517c-.31-1.137-.62-2.274-.93-3.514l1.24-.31.93 3.411-1.24.413zm39.483-5.168-1.033-.724c.62-.93 1.344-1.963 1.964-2.894l1.137.724a50.332 50.332 0 0 0-2.068 2.894zm-41.137-1.861c-.207-1.136-.413-2.377-.517-3.514l1.344-.206c.207 1.24.31 2.377.517 3.514l-1.344.206zm45.065-4.134-1.137-.723c.62-.931 1.241-1.964 1.861-2.998l1.137.62a41.227 41.227 0 0 1-1.861 3.101zm-45.995-2.997c-.103-1.137-.207-2.378-.31-3.618l1.344-.103c.103 1.24.206 2.377.31 3.514l-1.344.207zm49.716-3.101-1.137-.62c.62-1.034 1.137-2.068 1.757-3.101l1.137.62c-.62 1.034-1.24 2.067-1.757 3.101zm-50.13-4.031c0-1.137-.103-2.378-.103-3.618h1.344c0 1.24 0 2.377.103 3.514l-1.344.104zm53.438-2.274-1.137-.62a95.036 95.036 0 0 0 1.55-3.204l1.137.62a18.308 18.308 0 0 1-1.55 3.204zm-52.094-4.755h-1.344c0-1.137.104-2.377.104-3.617l1.344.103c-.104 1.137-.104 2.274-.104 3.514zm55.298-1.55-1.137-.517a43.902 43.902 0 0 0 1.447-3.204l1.24.517a93.208 93.208 0 0 0-1.55 3.204zm-54.988-5.582-1.343-.103c.103-1.137.206-2.377.206-3.514l1.344.103c-.103 1.137-.207 2.377-.207 3.514zm57.985-.93-1.24-.517c.517-1.033.93-2.17 1.447-3.307l1.24.517c-.516 1.137-1.033 2.17-1.447 3.307zm-57.468-6.098-1.344-.103c.104-1.137.207-2.378.414-3.515l1.344.104c-.207 1.137-.31 2.377-.414 3.514zm60.156-.517-1.241-.517c.414-1.137.827-2.17 1.344-3.307l1.24.517c-.413 1.137-.827 2.274-1.343 3.307zm-59.33-6.512-1.343-.206c.104-1.137.31-2.378.517-3.514l1.344.206c-.207 1.137-.414 2.274-.517 3.514zm61.914-.103-1.241-.413c.414-1.137.827-2.171 1.241-3.308l1.24.414c-.413 1.137-.827 2.17-1.24 3.307zm2.48-6.718-1.24-.414c.413-1.137.723-2.274 1.137-3.307l1.24.413c-.413 1.137-.723 2.171-1.137 3.308zm-63.463-.207-1.24-.207c.207-1.137.413-2.377.62-3.514l1.24.207c-.206 1.137-.413 2.377-.62 3.514zm65.737-6.512-1.24-.413c.31-1.137.723-2.274 1.033-3.411l1.241.413c-.31 1.137-.724 2.274-1.034 3.411zm-64.496-.516-1.24-.207c.206-1.137.413-2.274.723-3.514l1.24.206c-.31 1.241-.517 2.378-.724 3.515zm66.563-6.305-1.24-.414c.31-1.137.62-2.274 1.034-3.411l1.24.31c-.31 1.241-.724 2.378-1.034 3.515zm-65.22-.621-1.24-.31c.207-1.137.517-2.274.723-3.514l1.24.31c-.206 1.24-.413 2.377-.723 3.514zm66.874-5.271-1.24-.31.93-3.411 1.24.31c-.31 1.137-.516 2.274-.93 3.411zm-65.323-1.654-1.24-.31c.31-1.137.516-2.274.826-3.411l1.24.31c-.206 1.137-.516 2.274-.826 3.411zm67.184-5.271-1.241-.31c.31-1.137.62-2.274.827-3.411l1.241.31c-.207 1.137-.517 2.274-.827 3.411zm-65.427-1.654-1.24-.31.93-3.411 1.24.31-.93 3.411zm67.08-5.271-1.24-.31c.31-1.137.517-2.274.724-3.515l1.24.311c-.207 1.24-.414 2.377-.724 3.514zm-65.22-1.551-1.24-.31c.31-1.137.62-2.274 1.034-3.411l1.24.414c-.31 1.033-.724 2.17-1.034 3.307zm66.667-5.374-1.24-.207c.207-1.137.414-2.377.724-3.514l1.24.206c-.207 1.137-.413 2.274-.724 3.515zm-64.6-1.447-1.24-.414c.31-1.137.724-2.274 1.034-3.411l1.24.414c-.31 1.137-.724 2.274-1.034 3.411zm65.944-5.582-1.24-.207c.207-1.137.413-2.377.62-3.514l1.24.207c-.206 1.137-.413 2.377-.62 3.514zm-63.773-1.137-1.24-.413c.413-1.137.723-2.274 1.137-3.411l1.24.413c-.414 1.137-.724 2.274-1.137 3.411zm64.91-5.891-1.344-.207c.207-1.137.31-2.377.517-3.514l1.344.206c-.207 1.137-.31 2.274-.517 3.515zm-62.533-.827-1.24-.414c.413-1.137.827-2.274 1.24-3.307l1.241.413c-.517 1.137-.827 2.171-1.241 3.308zm63.463-6.305-1.343-.104c.103-1.137.31-2.377.413-3.514l1.344.104c-.207 1.137-.31 2.377-.414 3.514zm-60.982-.31-1.24-.517a44.108 44.108 0 0 1 1.343-3.308l1.241.517a44.122 44.122 0 0 0-1.344 3.308zm2.687-6.512-1.24-.517c.517-1.137.93-2.17 1.447-3.307l1.24.517a31.946 31.946 0 0 0-1.447 3.307zm59.019-.207-1.344-.103c.104-1.24.207-2.377.31-3.514l1.344.103c-.103 1.137-.207 2.274-.31 3.514zm-56.228-6.305-1.24-.516c.516-1.137 1.033-2.171 1.55-3.205l1.137.517c-.413 1.034-.93 2.067-1.447 3.204zm56.641-.827-1.343-.103c.103-1.24.103-2.377.103-3.514h1.344c0 1.24 0 2.377-.104 3.617zm-53.54-5.581-1.137-.62c.517-1.034 1.033-2.171 1.654-3.204l1.137.62c-.621 1.033-1.137 2.067-1.654 3.204zm52.403-1.55v-3.515h1.344v3.515h-1.344zm-49.096-4.755-1.137-.62c.62-1.034 1.137-2.067 1.757-3.101l1.137.62c-.62 1.034-1.24 2.067-1.757 3.101zm48.89-2.377c-.104-1.241-.104-2.377-.207-3.514l1.344-.104c.103 1.137.206 2.377.206 3.618h-1.343zm-45.375-3.825-1.137-.723c.62-1.034 1.24-2.067 1.86-2.997l1.137.723a33.987 33.987 0 0 0-1.86 2.997zm44.754-3.204c-.103-1.137-.31-2.377-.516-3.514l1.24-.207c.207 1.137.413 2.378.517 3.515l-1.241.206zm-41.034-2.687-1.136-.724c.723-1.033 1.343-1.963 2.067-2.894l1.033.724c-.62.93-1.24 1.86-1.964 2.894zm39.897-4.238c-.31-1.137-.516-2.274-.93-3.411l1.241-.413c.31 1.137.62 2.274.93 3.514l-1.241.31zm-35.762-1.55-1.034-.827c.724-.93 1.447-1.861 2.274-2.791l1.034.827c-.827.93-1.551 1.861-2.274 2.791zm33.695-5.168c-.413-1.137-.93-2.171-1.447-3.101l1.137-.62c.517 1.033 1.034 2.067 1.551 3.307l-1.241.414zm-29.147-.207-.93-.93c.826-.93 1.653-1.757 2.48-2.584l.93.93c-.827.827-1.653 1.654-2.48 2.584zm5.064-4.858-.826-1.033c.93-.827 1.963-1.55 2.894-2.171l.723 1.034c-.93.62-1.86 1.343-2.791 2.17zm20.776-.93c-.724-.93-1.551-1.757-2.378-2.377l.827-1.034c.931.724 1.757 1.654 2.584 2.584l-1.033.827zm-15.091-2.998-.62-1.136c1.137-.62 2.274-1.034 3.411-1.344l.31 1.24c-.93.31-1.964.724-3.101 1.24zm9.819-1.033c-.206-.103-.413-.103-.62-.207-.827-.207-1.757-.413-2.584-.413v-1.344c1.034 0 1.964.103 2.998.413.206.104.516.104.723.207l-.517 1.344z" fill="#E2F0F1"/><path d="M91.802 333.577a15.9 15.9 0 0 1-4.444-.621c-25.117-7.131-27.494-76.279-5.375-154.109 22.119-77.831 60.569-135.402 85.686-128.27 12.299 3.514 19.535 21.499 20.568 50.75.93 29.044-4.444 65.737-15.09 103.463-10.75 37.623-25.427 71.732-41.551 95.918-14.367 21.396-28.217 32.869-39.794 32.869zM163.224 50.99c-24.496 0-59.432 55.091-80.207 128.167C61 256.47 63.172 325.101 87.77 332.026c24.6 7.029 62.43-50.233 84.445-127.546 10.647-37.52 16.021-74.109 15.091-103.153-.93-28.735-7.959-46.41-19.742-49.82-1.55-.31-2.894-.517-4.341-.517z" fill="#2249B3"/><path d="M479.919 416.884h-347.6c-4.961 0-8.992-4.031-8.992-8.992V213.575c0-.621.413-1.034 1.033-1.034.62 0 1.034.413 1.034 1.034v194.317a6.926 6.926 0 0 0 6.925 6.925h347.6c.62 0 1.034.413 1.034 1.033 0 .62-.517 1.034-1.034 1.034z" fill="#B5CDFB"/><path d="M248.704 523.758h-.207c-32.042-.103-57.365-16.124-73.489-46.512-11.887-22.532-14.367-44.651-14.471-45.582-.31-2.377 1.447-4.547 3.928-4.858 2.377-.206 4.548 1.448 4.858 3.928 0 .207 2.481 21.602 13.644 42.688 14.677 27.494 36.692 41.551 65.633 41.551h.207c37.726 0 60.362-17.985 72.765-33.179 6.202-7.545 19.846-29.251 19.949-44.135 0-2.377 1.964-4.341 4.341-4.341 2.377 0 4.341 1.964 4.341 4.445-.103 8.889-6.098 30.284-21.912 49.612-13.644 16.538-38.45 36.383-79.587 36.383z" fill="#75E0E6"/><path opacity=".2" d="M496.663 94.814h-17.261v4.342h17.261v-4.342zM513.926 99.155h-17.261v17.261h17.261v-17.26z" fill="#1F253C"/><path d="M487.981 73.212h-17.262v17.261h17.262V73.212zM505.346 90.474h-17.261v17.261h17.261V90.474zM104.515 472.182H87.254v17.261h17.261v-17.261zM121.777 489.547h-17.261v17.261h17.261v-17.261z" fill="#2249B3"/><path opacity=".6" d="M485.398 443.241c13.758 0 24.91-11.152 24.91-24.909 0-13.758-11.152-24.91-24.91-24.91-13.757 0-24.909 11.152-24.909 24.91 0 13.757 11.152 24.909 24.909 24.909z" fill="#2249B3"/><path opacity=".9" d="M483.021 437.452c11.303 0 20.465-9.163 20.465-20.465 0-11.303-9.162-20.466-20.465-20.466-11.303 0-20.465 9.163-20.465 20.466 0 11.302 9.162 20.465 20.465 20.465z" fill="#2249B3"/><path d="M483.021 431.149c7.82 0 14.16-6.34 14.16-14.161 0-7.82-6.34-14.16-14.16-14.16-7.821 0-14.161 6.34-14.161 14.16 0 7.821 6.34 14.161 14.161 14.161z" fill="#2249B3"/><path d="M483.02 426.806c5.423 0 9.819-4.396 9.819-9.819 0-5.423-4.396-9.819-9.819-9.819-5.423 0-9.819 4.396-9.819 9.819 0 5.423 4.396 9.819 9.819 9.819z" fill="#2249B3"/><path d="M483.021 421.948a4.96 4.96 0 1 0 0-9.922 4.96 4.96 0 0 0 0 9.922z" fill="#2249B3"/><path d="M482.607 429.7c7.022 0 12.713-5.692 12.713-12.713 0-7.022-5.691-12.714-12.713-12.714-7.021 0-12.713 5.692-12.713 12.714 0 7.021 5.692 12.713 12.713 12.713z" fill="#2249B3"/><path d="M483.02 442.414c-13.953 0-25.426-11.37-25.426-25.427s11.369-25.426 25.426-25.426c14.057 0 25.427 11.369 25.427 25.426 0 14.057-11.37 25.427-25.427 25.427zm0-49.716c-13.437 0-24.393 10.956-24.393 24.393 0 13.436 10.956 24.392 24.393 24.392 13.437 0 24.393-10.956 24.393-24.392 0-13.437-10.956-24.393-24.393-24.393z" fill="#75E0E6"/><path d="M483.021 437.97c-11.576 0-20.982-9.406-20.982-20.982 0-11.576 9.406-20.982 20.982-20.982 11.576 0 20.982 9.406 20.982 20.982 0 11.576-9.406 20.982-20.982 20.982zm0-40.931c-10.956 0-19.949 8.993-19.949 19.949 0 10.956 8.993 19.948 19.949 19.948 10.956 0 19.948-8.992 19.948-19.948s-8.888-19.949-19.948-19.949z" fill="#75E0E6"/><path d="M483.021 431.665c-8.062 0-14.678-6.615-14.678-14.677s6.616-14.677 14.678-14.677c8.062 0 14.677 6.615 14.677 14.677s-6.615 14.677-14.677 14.677zm0-28.218a13.631 13.631 0 0 0-13.644 13.644 13.631 13.631 0 0 0 13.644 13.644c7.545 0 13.643-6.099 13.643-13.644s-6.098-13.644-13.643-13.644z" fill="#75E0E6"/><path d="M483.02 427.428c-5.685 0-10.336-4.651-10.336-10.336 0-5.685 4.651-10.336 10.336-10.336 5.685 0 10.336 4.651 10.336 10.336a10.3 10.3 0 0 1-10.336 10.336zm0-19.742c-5.168 0-9.303 4.238-9.303 9.303 0 5.064 4.238 9.302 9.303 9.302 5.168 0 9.302-4.238 9.302-9.302 0-5.065-4.134-9.303-9.302-9.303z" fill="#75E0E6"/><path d="M483.021 422.569c-2.997 0-5.478-2.48-5.478-5.478 0-2.997 2.481-5.478 5.478-5.478s5.478 2.481 5.478 5.478c0 2.998-2.377 5.478-5.478 5.478zm0-10.025a4.41 4.41 0 0 0-4.444 4.444 4.41 4.41 0 0 0 4.444 4.444 4.41 4.41 0 0 0 4.444-4.444 4.41 4.41 0 0 0-4.444-4.444z" fill="#75E0E6"/><path opacity=".8" d="M133.664 169.957c-.31-.103-21.189-.517-24.806 16.744-2.791 13.437 13.333 26.771 13.953 26.977 3.411.827 8.476-8.268 11.473-20.362 3.101-12.093 2.791-22.532-.62-23.359z" fill="#75E0E6"/></svg>